<?xml version="1.0" encoding="utf-8"?>
<!-- Generator: Adobe Illustrator 21.1.0, SVG Export Plug-In . SVG Version: 6.00 Build 0)  -->
<svg version="1.1" id="Layer_1" xmlns="http://www.w3.org/2000/svg" xmlns:xlink="http://www.w3.org/1999/xlink" x="0px" y="0px"
	 width="500px" height="400px" viewBox="0 0 500 400" style="enable-background:new 0 0 500 400;" xml:space="preserve">
<style type="text/css">
	.st0{fill:#FFFFFF;}
	.st1{fill:none;}
	.st2{fill:none;stroke:#FFFFFF;stroke-width:10.7558;stroke-linecap:round;stroke-miterlimit:10;}
	.st3{fill:none;stroke:#FFFFFF;stroke-width:10.7558;stroke-linecap:round;stroke-linejoin:round;}
	.st4{fill:none;stroke:#FFFFFF;stroke-width:10.7558;stroke-linecap:round;stroke-linejoin:round;stroke-miterlimit:10;}
	.st5{fill:none;stroke:#FFFFFF;stroke-width:10;stroke-linecap:round;stroke-linejoin:round;}
	.st6{fill:#E25C00;}
	.st7{fill:#E28800;}
	.st8{fill:#333333;}
	.st9{fill:#115A8A;}
	.st10{fill:#314552;}
	.st11{fill:none;stroke:#E28800;stroke-miterlimit:10;}
	.st12{fill:none;stroke:#E28800;stroke-width:1.7456;stroke-miterlimit:10;}
	.st13{fill:none;stroke:#E28800;stroke-width:9.388;stroke-linecap:round;stroke-linejoin:round;}
	.st14{fill:none;stroke:#FFFFFF;stroke-width:11.0815;stroke-linecap:round;stroke-linejoin:round;}
	.st15{display:none;fill:#FFFFFF;}
	.st16{fill:none;stroke:#FFFFFF;stroke-width:2;stroke-miterlimit:10;}
	.st17{fill:#E28800;stroke:#E28800;stroke-width:6;stroke-miterlimit:10;}
	.st18{fill:none;stroke:#FFFFFF;stroke-width:4;stroke-miterlimit:10;}
	.st19{fill:#E28800;stroke:#E28800;stroke-width:7.6486;stroke-miterlimit:10;}
	.st20{fill:none;stroke:#666666;stroke-width:4;stroke-miterlimit:10;}
	.st21{fill:#FFA541;}
	.st22{fill:none;stroke:#FFA541;stroke-width:3.2895;stroke-miterlimit:10;}
	.st23{fill:none;stroke:#FFFFFF;stroke-width:10;stroke-linecap:round;stroke-linejoin:round;stroke-miterlimit:10;}
	.st24{fill:none;stroke:#E28800;stroke-width:10;stroke-linecap:round;stroke-linejoin:round;stroke-miterlimit:10;}
	.st25{fill:none;stroke:#666666;stroke-width:10;stroke-linecap:round;stroke-linejoin:round;stroke-miterlimit:10;}
	.st26{fill:none;stroke:#E28800;stroke-width:16.6708;stroke-linecap:round;stroke-linejoin:round;}
	.st27{fill:none;stroke:#E28800;stroke-width:16.6708;stroke-linecap:round;stroke-linejoin:round;stroke-miterlimit:10;}
	.st28{fill:none;stroke:#E28800;stroke-width:13.4364;stroke-linecap:round;stroke-linejoin:round;}
	.st29{fill:none;stroke:#FFA541;stroke-width:4.9085;stroke-miterlimit:10;}
	.st30{clip-path:url(#SVGID_2_);}
	.st31{fill:none;stroke:#FFA541;stroke-width:9.5129;stroke-miterlimit:10;}
	.st32{fill:none;stroke:#FFFFFF;stroke-width:14.8519;stroke-linecap:round;stroke-miterlimit:10;}
	.st33{clip-path:url(#SVGID_4_);}
	.st34{fill:none;stroke:#666666;stroke-width:14.8519;stroke-linecap:round;stroke-miterlimit:10;}
</style>
<path class="st25" d="M189.3,212.1v-24.2c0-21.9,17.7-39.6,39.6-39.6h42.1c21.9,0,39.6,17.7,39.6,39.6v24.2
	c0,21.9-17.7,39.6-39.6,39.6h-42.1C207.1,251.7,189.3,234,189.3,212.1z"/>
<path class="st25" d="M25.1,212.1v-24.2c0-21.9,17.7-39.6,39.6-39.6h42.1c21.9,0,39.6,17.7,39.6,39.6v24.2
	c0,21.9-17.7,39.6-39.6,39.6H64.7C42.8,251.7,25.1,234,25.1,212.1z"/>
<line class="st24" x1="229.5" y1="200" x2="106.2" y2="200"/>
<path class="st25" d="M353.6,212.1v-24.2c0-21.9,17.7-39.6,39.6-39.6h42.1c21.9,0,39.6,17.7,39.6,39.6v24.2
	c0,21.9-17.7,39.6-39.6,39.6h-42.1C371.3,251.7,353.6,234,353.6,212.1z"/>
<line class="st24" x1="393.8" y1="200" x2="270.5" y2="200"/>
</svg>
