<?xml version="1.0" encoding="utf-8"?>
<!-- Generator: Adobe Illustrator 21.1.0, SVG Export Plug-In . SVG Version: 6.00 Build 0)  -->
<svg version="1.1" id="Layer_1" xmlns="http://www.w3.org/2000/svg" xmlns:xlink="http://www.w3.org/1999/xlink" x="0px" y="0px"
	 width="500px" height="400px" viewBox="0 0 500 400" style="enable-background:new 0 0 500 400;" xml:space="preserve">
<style type="text/css">
	.st0{fill:#FFFFFF;}
	.st1{fill:none;}
	.st2{fill:none;stroke:#FFFFFF;stroke-width:10.7558;stroke-linecap:round;stroke-miterlimit:10;}
	.st3{fill:none;stroke:#FFFFFF;stroke-width:10.7558;stroke-linecap:round;stroke-linejoin:round;}
	.st4{fill:none;stroke:#FFFFFF;stroke-width:10.7558;stroke-linecap:round;stroke-linejoin:round;stroke-miterlimit:10;}
	.st5{fill:none;stroke:#FFFFFF;stroke-width:10;stroke-linecap:round;stroke-linejoin:round;}
	.st6{fill:#E25C00;}
	.st7{fill:#E28800;}
	.st8{fill:#333333;}
	.st9{fill:#115A8A;}
	.st10{fill:#314552;}
	.st11{fill:none;stroke:#E28800;stroke-miterlimit:10;}
	.st12{fill:none;stroke:#E28800;stroke-width:1.7456;stroke-miterlimit:10;}
	.st13{fill:none;stroke:#E28800;stroke-width:9.388;stroke-linecap:round;stroke-linejoin:round;}
	.st14{fill:none;stroke:#FFFFFF;stroke-width:11.0815;stroke-linecap:round;stroke-linejoin:round;}
	.st15{display:none;fill:#FFFFFF;}
	.st16{fill:none;stroke:#FFFFFF;stroke-width:2;stroke-miterlimit:10;}
	.st17{fill:#E28800;stroke:#E28800;stroke-width:6;stroke-miterlimit:10;}
	.st18{fill:none;stroke:#FFFFFF;stroke-width:4;stroke-miterlimit:10;}
	.st19{fill:#E28800;stroke:#E28800;stroke-width:7.6486;stroke-miterlimit:10;}
	.st20{fill:none;stroke:#666666;stroke-width:4;stroke-miterlimit:10;}
	.st21{fill:#FFA541;}
	.st22{fill:none;stroke:#FFA541;stroke-width:3.2895;stroke-miterlimit:10;}
	.st23{fill:none;stroke:#FFFFFF;stroke-width:10;stroke-linecap:round;stroke-linejoin:round;stroke-miterlimit:10;}
	.st24{fill:none;stroke:#E28800;stroke-width:10;stroke-linecap:round;stroke-linejoin:round;stroke-miterlimit:10;}
	.st25{fill:none;stroke:#666666;stroke-width:10;stroke-linecap:round;stroke-linejoin:round;stroke-miterlimit:10;}
	.st26{fill:none;stroke:#E28800;stroke-width:16.6708;stroke-linecap:round;stroke-linejoin:round;}
	.st27{fill:none;stroke:#E28800;stroke-width:16.6708;stroke-linecap:round;stroke-linejoin:round;stroke-miterlimit:10;}
	.st28{fill:none;stroke:#E28800;stroke-width:13.4364;stroke-linecap:round;stroke-linejoin:round;}
	.st29{fill:none;stroke:#FFA541;stroke-width:4.9085;stroke-miterlimit:10;}
	.st30{clip-path:url(#SVGID_2_);}
	.st31{fill:none;stroke:#FFA541;stroke-width:9.5129;stroke-miterlimit:10;}
	.st32{fill:none;stroke:#FFFFFF;stroke-width:14.8519;stroke-linecap:round;stroke-miterlimit:10;}
	.st33{clip-path:url(#SVGID_4_);}
	.st34{fill:none;stroke:#666666;stroke-width:14.8519;stroke-linecap:round;stroke-miterlimit:10;}
</style>
<path class="st20" d="M23.7,248.7c0,0,36.3-40,86.6-37.5c0,0,125.8-120.7,275.9-102.9c0,0-60.4,8.8-84,52.6c0,0-85.9,0-191.9,50.3
	c0,0,111.8-15.7,162.5,81.7c0,0,88.1-56.9,209.3-11.5c0,0-64.3-85.7-31.6-161.3c0,0-13.2-16.6-64.4-11.7c0,0-31,6.6-39.4,33.9
	c0,0-69.9,42.7-73.9,150.6c0,0,62.2-126.8,103.7-144.8c0,0,57.5,1.8,97.9,54.9c0,0-17.8-59.4-64.3-62.1c0,0-33,4.2-107.9,20.1
	C302.2,160.9,156.2,123.2,23.7,248.7"/>
<ellipse transform="matrix(0.9778 -0.2097 0.2097 0.9778 -27.0209 66.9453)" class="st19" cx="302.2" cy="160.9" rx="5.9" ry="5.9"/>
<ellipse transform="matrix(0.9778 -0.2097 0.2097 0.9778 -51.6093 10.4992)" class="st19" cx="23.7" cy="248.7" rx="5.9" ry="5.9"/>
<ellipse transform="matrix(0.9778 -0.2097 0.2097 0.9778 -48.2645 107.3502)" class="st19" cx="482.2" cy="281.3" rx="5.9" ry="5.9"/>
<ellipse transform="matrix(0.9778 -0.2097 0.2097 0.9778 -31.9893 103.9881)" class="st19" cx="474.5" cy="202.9" rx="5.9" ry="5.9"/>
<ellipse transform="matrix(0.9778 -0.2097 0.2097 0.9778 -15.1429 97.1478)" class="st19" cx="450.6" cy="120" rx="5.9" ry="5.9"/>
<ellipse transform="matrix(0.9778 -0.2097 0.2097 0.9778 -14.126 83.3865)" class="st19" cx="386.2" cy="108.3" rx="5.9" ry="5.9"/>
<ellipse transform="matrix(0.9778 -0.2097 0.2097 0.9778 -41.822 27.8275)" class="st19" cx="110.3" cy="211.2" rx="5.9" ry="5.9"/>
<ellipse transform="matrix(0.9778 -0.2097 0.2097 0.9778 -55.3296 63.7207)" class="st19" cx="272.9" cy="292.8" rx="5.9" ry="5.9"/>
<ellipse transform="matrix(0.9778 -0.2097 0.2097 0.9778 -22.6651 82.2369)" class="st19" cx="376.5" cy="148" rx="5.9" ry="5.9"/>
<ellipse transform="matrix(0.9778 -0.2097 0.2097 0.9778 -20.4046 89.131)" class="st19" cx="410.2" cy="140.8" rx="5.9" ry="5.9"/>
<ellipse transform="matrix(0.9778 -0.2097 0.2097 0.9778 -22.1197 75.8701)" class="st19" cx="346.8" cy="142.3" rx="5.9" ry="5.9"/>
</svg>
