<?xml version="1.0" encoding="utf-8"?>
<!-- Generator: Adobe Illustrator 21.1.0, SVG Export Plug-In . SVG Version: 6.00 Build 0)  -->
<svg version="1.1" id="Layer_1" xmlns="http://www.w3.org/2000/svg" xmlns:xlink="http://www.w3.org/1999/xlink" x="0px" y="0px"
	 width="300px" height="224px" viewBox="0 0 300 224" style="enable-background:new 0 0 300 224;" xml:space="preserve">
<style type="text/css">
	.st0{fill:#3D3B30;}
	.st1{fill:#F92671;}
	.st2{fill:#66D9EF;}
	.st3{fill:#A6E22E;}
	.st4{fill:#FFFFFF;}
	.st5{fill:#FD9720;}
	.st6{fill:#AF81FF;}
	.st7{fill:#E5DB73;}
	.st8{fill:#E6E6E6;}
	.st9{fill:#B5B5B5;}
	.st10{fill:none;stroke:#FFFFFF;stroke-width:2.4953;stroke-miterlimit:10;}
	.st11{fill:none;stroke:#F92671;stroke-width:2.4953;stroke-miterlimit:10;}
	.st12{fill:none;stroke:#66D9EF;stroke-width:2.4953;stroke-miterlimit:10;}
	.st13{fill:none;stroke:#A6E22E;stroke-width:2.4953;stroke-miterlimit:10;}
	.st14{fill:none;stroke:#E5DB73;stroke-width:2.4953;stroke-miterlimit:10;}
	.st15{fill:none;stroke:#FD9720;stroke-width:2.4953;stroke-miterlimit:10;}
	.st16{fill:none;stroke:#AF81FF;stroke-width:2.4953;stroke-miterlimit:10;}
	.st17{fill:#FFC2D5;}
	.st18{fill:none;stroke:#F97DA8;stroke-width:2.5878;stroke-miterlimit:10;}
	.st19{fill:#C9C165;}
	.st20{fill:#53B6C7;}
	.st21{fill:none;stroke:#53B6C7;stroke-width:2.9644;stroke-miterlimit:10;}
	.st22{fill:none;stroke:#C9C165;stroke-width:2.1943;stroke-miterlimit:10;}
	.st23{fill:#67C8DB;}
	.st24{fill:#51AEBF;}
	.st25{fill:none;stroke:#FFFFFF;stroke-width:3;stroke-miterlimit:10;}
	.st26{fill:none;stroke:#F92671;stroke-width:3;stroke-miterlimit:10;}
	.st27{fill:none;stroke:#66D9EF;stroke-width:3;stroke-miterlimit:10;}
	.st28{fill:none;stroke:#A6E22E;stroke-width:3;stroke-miterlimit:10;}
	.st29{fill:none;stroke:#E5DB73;stroke-width:3;stroke-miterlimit:10;}
	.st30{fill:none;stroke:#FD9720;stroke-width:3;stroke-miterlimit:10;}
	.st31{fill:none;stroke:#AF81FF;stroke-width:3;stroke-miterlimit:10;}
	.st32{fill:#F9AEC8;}
	.st33{fill:none;stroke:#F97DA8;stroke-width:4.0635;stroke-miterlimit:10;}
	.st34{fill:none;stroke:#53B6C7;stroke-width:3.2508;stroke-miterlimit:10;}
	.st35{fill:none;stroke:#C9C165;stroke-width:3.2508;stroke-miterlimit:10;}
</style>
<g>
	<rect x="23.2" y="23" class="st0" width="253.7" height="178"/>
	<rect x="23.2" y="23" class="st8" width="33.3" height="178"/>
	<rect x="23.2" y="23" class="st9" width="253.7" height="15"/>
	<rect x="23.2" y="189.4" class="st9" width="253.7" height="11.6"/>
	<circle class="st1" cx="32.3" cy="30.5" r="3.3"/>
	<circle class="st7" cx="41.5" cy="30.5" r="3.3"/>
	<circle class="st3" cx="50.6" cy="30.5" r="3.3"/>
	<line class="st10" x1="136.1" y1="47.1" x2="161.2" y2="47.1"/>
	<line class="st11" x1="134.4" y1="47.1" x2="136.1" y2="47.1"/>
	<line class="st10" x1="122.5" y1="47.1" x2="134.4" y2="47.1"/>
	<line class="st12" x1="105.3" y1="47.1" x2="122.5" y2="47.1"/>
	<line class="st13" x1="89.1" y1="47.1" x2="105.3" y2="47.1"/>
	<line class="st12" x1="79.1" y1="47.1" x2="89.1" y2="47.1"/>
	<line class="st11" x1="66.4" y1="47.1" x2="79.1" y2="47.1"/>
	<line class="st10" x1="66.4" y1="182.3" x2="70.1" y2="182.3"/>
	<line class="st10" x1="77.2" y1="177.5" x2="81" y2="177.5"/>
	<line class="st10" x1="103" y1="172.6" x2="106.7" y2="172.6"/>
	<line class="st14" x1="103" y1="90.6" x2="106.7" y2="90.6"/>
	<line class="st10" x1="77.2" y1="71.3" x2="81" y2="71.3"/>
	<line class="st10" x1="104" y1="51.9" x2="107.2" y2="51.9"/>
	<line class="st15" x1="93" y1="51.9" x2="104" y2="51.9"/>
	<line class="st10" x1="91.1" y1="51.9" x2="93" y2="51.9"/>
	<line class="st13" x1="77.2" y1="51.9" x2="91.1" y2="51.9"/>
	<line class="st10" x1="91.1" y1="76.1" x2="96.8" y2="76.1"/>
	<line class="st13" x1="77.2" y1="76.1" x2="91.1" y2="76.1"/>
	<line class="st10" x1="131.2" y1="56.8" x2="134.6" y2="56.8"/>
	<line class="st12" x1="101.5" y1="56.8" x2="131.2" y2="56.8"/>
	<line class="st10" x1="100" y1="56.8" x2="101.5" y2="56.8"/>
	<line class="st10" x1="90.5" y1="56.8" x2="100" y2="56.8"/>
	<line class="st10" x1="131.6" y1="61.6" x2="134.6" y2="61.6"/>
	<line class="st12" x1="114.9" y1="61.6" x2="131.6" y2="61.6"/>
	<line class="st10" x1="113.1" y1="61.6" x2="114.9" y2="61.6"/>
	<line class="st12" x1="99.8" y1="61.6" x2="113.1" y2="61.6"/>
	<line class="st11" x1="97.7" y1="61.6" x2="99.8" y2="61.6"/>
	<line class="st15" x1="90.5" y1="61.6" x2="97.7" y2="61.6"/>
	<line class="st10" x1="130.3" y1="66.4" x2="134.6" y2="66.4"/>
	<line class="st12" x1="90.5" y1="66.4" x2="130.3" y2="66.4"/>
	<line class="st11" x1="184.4" y1="80.9" x2="186.6" y2="80.9"/>
	<line class="st16" x1="175.8" y1="80.9" x2="184.4" y2="80.9"/>
	<line class="st11" x1="169.4" y1="80.9" x2="175.8" y2="80.9"/>
	<line class="st10" x1="134.3" y1="80.9" x2="169.4" y2="80.9"/>
	<line class="st10" x1="132.3" y1="80.9" x2="134.3" y2="80.9"/>
	<line class="st15" x1="124.8" y1="80.9" x2="132.3" y2="80.9"/>
	<line class="st11" x1="121" y1="80.9" x2="124.8" y2="80.9"/>
	<line class="st10" x1="101.6" y1="80.9" x2="121" y2="80.9"/>
	<line class="st12" x1="90.5" y1="80.9" x2="101.6" y2="80.9"/>
	<line class="st11" x1="209.9" y1="85.7" x2="211.6" y2="85.7"/>
	<line class="st10" x1="207.4" y1="85.7" x2="209.9" y2="85.7"/>
	<line class="st11" x1="202.5" y1="85.7" x2="207.4" y2="85.7"/>
	<line class="st10" x1="177.2" y1="85.7" x2="202.5" y2="85.7"/>
	<line class="st11" x1="176" y1="85.7" x2="177.2" y2="85.7"/>
	<line class="st10" x1="153" y1="85.7" x2="176" y2="85.7"/>
	<line class="st11" x1="151.8" y1="85.7" x2="153" y2="85.7"/>
	<line class="st10" x1="140.7" y1="85.7" x2="151.8" y2="85.7"/>
	<line class="st11" x1="139.3" y1="85.7" x2="140.7" y2="85.7"/>
	<line class="st15" x1="132" y1="85.7" x2="139.3" y2="85.7"/>
	<line class="st10" x1="108.5" y1="85.7" x2="132" y2="85.7"/>
	<line class="st11" x1="104.8" y1="85.7" x2="108.5" y2="85.7"/>
	<line class="st10" x1="103.4" y1="85.7" x2="104.8" y2="85.7"/>
	<line class="st11" x1="183" y1="95.4" x2="186.6" y2="95.4"/>
	<line class="st16" x1="174.8" y1="95.4" x2="183" y2="95.4"/>
	<line class="st11" x1="168.3" y1="95.4" x2="174.8" y2="95.4"/>
	<line class="st10" x1="144.1" y1="95.4" x2="168.3" y2="95.4"/>
	<line class="st10" x1="143.4" y1="95.4" x2="144.1" y2="95.4"/>
	<line class="st10" x1="132.2" y1="95.4" x2="143.4" y2="95.4"/>
	<line class="st10" x1="131" y1="95.4" x2="132.2" y2="95.4"/>
	<line class="st15" x1="123.2" y1="95.4" x2="131" y2="95.4"/>
	<line class="st11" x1="119.8" y1="95.4" x2="123.2" y2="95.4"/>
	<line class="st10" x1="101" y1="95.4" x2="119.8" y2="95.4"/>
	<line class="st12" x1="90.5" y1="95.4" x2="101" y2="95.4"/>
	<line class="st10" x1="270.4" y1="100.2" x2="276.8" y2="100.2"/>
	<line class="st11" x1="269.1" y1="100.2" x2="270.4" y2="100.2"/>
	<line class="st15" x1="261.6" y1="100.2" x2="269.1" y2="100.2"/>
	<line class="st16" x1="259.2" y1="100.2" x2="261.6" y2="100.2"/>
	<line class="st14" x1="250.6" y1="100.2" x2="259.2" y2="100.2"/>
	<line class="st10" x1="247.9" y1="100.2" x2="250.6" y2="100.2"/>
	<line class="st11" x1="244.7" y1="100.2" x2="247.9" y2="100.2"/>
	<line class="st13" x1="235.6" y1="100.2" x2="244.7" y2="100.2"/>
	<line class="st10" x1="219.7" y1="100.2" x2="235.6" y2="100.2"/>
	<line class="st12" x1="206.4" y1="100.2" x2="219.7" y2="100.2"/>
	<line class="st11" x1="205.4" y1="100.2" x2="206.4" y2="100.2"/>
	<line class="st15" x1="196.7" y1="100.2" x2="205.4" y2="100.2"/>
	<line class="st10" x1="192.1" y1="100.2" x2="196.7" y2="100.2"/>
	<line class="st10" x1="190.6" y1="100.2" x2="192.1" y2="100.2"/>
	<line class="st15" x1="179.2" y1="100.2" x2="190.6" y2="100.2"/>
	<line class="st10" x1="177.2" y1="100.2" x2="179.2" y2="100.2"/>
	<line class="st11" x1="174" y1="100.2" x2="177.2" y2="100.2"/>
	<line class="st13" x1="158.6" y1="100.2" x2="174" y2="100.2"/>
	<line class="st14" x1="155" y1="100.2" x2="158.6" y2="100.2"/>
	<line class="st11" x1="152.3" y1="100.2" x2="155" y2="100.2"/>
	<line class="st13" x1="143.6" y1="100.2" x2="152.3" y2="100.2"/>
	<line class="st14" x1="119.1" y1="100.2" x2="143.6" y2="100.2"/>
	<line class="st11" x1="116.8" y1="100.2" x2="119.1" y2="100.2"/>
	<line class="st13" x1="94.9" y1="100.2" x2="116.8" y2="100.2"/>
	<line class="st11" x1="92" y1="100.2" x2="94.9" y2="100.2"/>
	<line class="st10" x1="90.5" y1="100.2" x2="92" y2="100.2"/>
	<line class="st10" x1="256.7" y1="105" x2="276.8" y2="105"/>
	<line class="st14" x1="254.4" y1="105" x2="256.7" y2="105"/>
	<line class="st11" x1="252" y1="105" x2="254.4" y2="105"/>
	<line class="st14" x1="238.1" y1="105" x2="252" y2="105"/>
	<line class="st11" x1="234.9" y1="105" x2="238.1" y2="105"/>
	<line class="st10" x1="224.4" y1="105" x2="234.9" y2="105"/>
	<line class="st11" x1="223.4" y1="105" x2="224.4" y2="105"/>
	<line class="st10" x1="212.4" y1="105" x2="223.4" y2="105"/>
	<line class="st11" x1="211.5" y1="105" x2="212.4" y2="105"/>
	<line class="st15" x1="203.8" y1="105" x2="211.5" y2="105"/>
	<line class="st16" x1="202.3" y1="105" x2="203.8" y2="105"/>
	<line class="st14" x1="191.5" y1="105" x2="202.3" y2="105"/>
	<line class="st10" x1="189.8" y1="105" x2="191.5" y2="105"/>
	<line class="st11" x1="187.2" y1="105" x2="189.8" y2="105"/>
	<line class="st13" x1="178.7" y1="105" x2="187.2" y2="105"/>
	<line class="st14" x1="153.3" y1="105" x2="178.7" y2="105"/>
	<line class="st11" x1="150.6" y1="105" x2="153.3" y2="105"/>
	<line class="st13" x1="129" y1="105" x2="150.6" y2="105"/>
	<line class="st14" x1="115.4" y1="105" x2="129" y2="105"/>
	<line class="st13" x1="108.8" y1="105" x2="115.4" y2="105"/>
	<line class="st11" x1="92.2" y1="105" x2="108.8" y2="105"/>
	<line class="st10" x1="90.5" y1="105" x2="92.2" y2="105"/>
	<line class="st10" x1="102.7" y1="109.9" x2="105.1" y2="109.9"/>
	<line class="st11" x1="90.5" y1="109.9" x2="102.7" y2="109.9"/>
	<line class="st10" x1="120.1" y1="167.8" x2="121.7" y2="167.8"/>
	<line class="st11" x1="105.5" y1="167.8" x2="120.1" y2="167.8"/>
	<line class="st10" x1="102.6" y1="167.8" x2="105.5" y2="167.8"/>
	<line class="st10" x1="118.6" y1="114.7" x2="122.1" y2="114.7"/>
	<line class="st11" x1="104.7" y1="114.7" x2="118.6" y2="114.7"/>
	<line class="st10" x1="103" y1="114.7" x2="104.7" y2="114.7"/>
	<line class="st10" x1="177.7" y1="119.5" x2="179.9" y2="119.5"/>
	<line class="st14" x1="147.8" y1="119.5" x2="177.7" y2="119.5"/>
	<line class="st11" x1="143.6" y1="119.5" x2="147.8" y2="119.5"/>
	<line class="st13" x1="122.8" y1="119.5" x2="143.6" y2="119.5"/>
	<line class="st11" x1="116.6" y1="119.5" x2="122.8" y2="119.5"/>
	<line class="st10" x1="114.2" y1="119.5" x2="116.6" y2="119.5"/>
	<line class="st10" x1="114.2" y1="134" x2="135.9" y2="134"/>
	<line class="st10" x1="178.2" y1="138.8" x2="179.9" y2="138.8"/>
	<line class="st14" x1="147" y1="138.8" x2="178.2" y2="138.8"/>
	<line class="st10" x1="143.6" y1="138.8" x2="147" y2="138.8"/>
	<line class="st13" x1="122.5" y1="138.8" x2="143.6" y2="138.8"/>
	<line class="st11" x1="116.6" y1="138.8" x2="122.5" y2="138.8"/>
	<line class="st10" x1="114.2" y1="138.8" x2="116.6" y2="138.8"/>
	<line class="st10" x1="123.6" y1="163" x2="125" y2="163"/>
	<line class="st11" x1="116.2" y1="163" x2="123.6" y2="163"/>
	<line class="st10" x1="114.2" y1="163" x2="116.2" y2="163"/>
	<line class="st10" x1="123.3" y1="129.2" x2="125.5" y2="129.2"/>
	<line class="st11" x1="117.3" y1="129.2" x2="123.3" y2="129.2"/>
	<line class="st10" x1="114.6" y1="129.2" x2="117.3" y2="129.2"/>
	<line class="st10" x1="239.2" y1="124.4" x2="241.5" y2="124.4"/>
	<line class="st11" x1="231.8" y1="124.4" x2="239.2" y2="124.4"/>
	<line class="st10" x1="224.8" y1="124.4" x2="231.8" y2="124.4"/>
	<line class="st14" x1="187.5" y1="124.4" x2="224.8" y2="124.4"/>
	<line class="st11" x1="184.7" y1="124.4" x2="187.5" y2="124.4"/>
	<line class="st13" x1="178.8" y1="124.4" x2="184.7" y2="124.4"/>
	<line class="st10" x1="167.7" y1="124.4" x2="178.8" y2="124.4"/>
	<line class="st10" x1="165" y1="124.4" x2="167.7" y2="124.4"/>
	<line class="st13" x1="158.2" y1="124.4" x2="165" y2="124.4"/>
	<line class="st11" x1="150.4" y1="124.4" x2="158.2" y2="124.4"/>
	<line class="st10" x1="146.4" y1="124.4" x2="150.4" y2="124.4"/>
	<line class="st14" x1="143.8" y1="124.4" x2="146.4" y2="124.4"/>
	<line class="st11" x1="141.7" y1="124.4" x2="143.8" y2="124.4"/>
	<line class="st13" x1="136.1" y1="124.4" x2="141.7" y2="124.4"/>
	<line class="st11" x1="128.9" y1="124.4" x2="136.1" y2="124.4"/>
	<line class="st10" x1="126.7" y1="124.4" x2="128.9" y2="124.4"/>
	<line class="st11" x1="273.2" y1="143.7" x2="276.8" y2="143.7"/>
	<line class="st10" x1="261.9" y1="143.7" x2="273.2" y2="143.7"/>
	<line class="st11" x1="260.8" y1="143.7" x2="261.9" y2="143.7"/>
	<line class="st10" x1="250.1" y1="143.7" x2="260.8" y2="143.7"/>
	<line class="st11" x1="248.8" y1="143.7" x2="250.1" y2="143.7"/>
	<line class="st15" x1="240.7" y1="143.7" x2="248.8" y2="143.7"/>
	<line class="st16" x1="239" y1="143.7" x2="240.7" y2="143.7"/>
	<line class="st14" x1="229.3" y1="143.7" x2="239" y2="143.7"/>
	<line class="st10" x1="226.9" y1="143.7" x2="229.3" y2="143.7"/>
	<line class="st11" x1="224.6" y1="143.7" x2="226.9" y2="143.7"/>
	<line class="st13" x1="214.1" y1="143.7" x2="224.6" y2="143.7"/>
	<line class="st14" x1="190.4" y1="143.7" x2="214.1" y2="143.7"/>
	<line class="st11" x1="188" y1="143.7" x2="190.4" y2="143.7"/>
	<line class="st13" x1="165.6" y1="143.7" x2="188" y2="143.7"/>
	<line class="st14" x1="151.4" y1="143.7" x2="165.6" y2="143.7"/>
	<line class="st11" x1="149" y1="143.7" x2="151.4" y2="143.7"/>
	<line class="st13" x1="143.7" y1="143.7" x2="149" y2="143.7"/>
	<line class="st11" x1="128.9" y1="143.7" x2="143.7" y2="143.7"/>
	<line class="st10" x1="126.7" y1="143.7" x2="128.9" y2="143.7"/>
	<line class="st10" x1="264" y1="148.5" x2="276.8" y2="148.5"/>
	<line class="st11" x1="263" y1="148.5" x2="264" y2="148.5"/>
	<line class="st10" x1="251.5" y1="148.5" x2="263" y2="148.5"/>
	<line class="st11" x1="250.6" y1="148.5" x2="251.5" y2="148.5"/>
	<line class="st10" x1="242.9" y1="148.5" x2="250.6" y2="148.5"/>
	<line class="st16" x1="241.4" y1="148.5" x2="242.9" y2="148.5"/>
	<line class="st14" x1="231.5" y1="148.5" x2="241.4" y2="148.5"/>
	<line class="st10" x1="228.7" y1="148.5" x2="231.5" y2="148.5"/>
	<line class="st11" x1="226.7" y1="148.5" x2="228.7" y2="148.5"/>
	<line class="st13" x1="216.9" y1="148.5" x2="226.7" y2="148.5"/>
	<line class="st14" x1="192.5" y1="148.5" x2="216.9" y2="148.5"/>
	<line class="st11" x1="190" y1="148.5" x2="192.5" y2="148.5"/>
	<line class="st13" x1="167.6" y1="148.5" x2="190" y2="148.5"/>
	<line class="st14" x1="151.2" y1="148.5" x2="167.6" y2="148.5"/>
	<line class="st11" x1="148.6" y1="148.5" x2="151.2" y2="148.5"/>
	<line class="st13" x1="144" y1="148.5" x2="148.6" y2="148.5"/>
	<line class="st11" x1="128.9" y1="148.5" x2="144" y2="148.5"/>
	<line class="st10" x1="126.7" y1="148.5" x2="128.9" y2="148.5"/>
	<line class="st10" x1="126.7" y1="153.3" x2="146.7" y2="153.3"/>
	<line class="st11" x1="270.4" y1="158.1" x2="272.1" y2="158.1"/>
	<line class="st10" x1="259.7" y1="158.1" x2="270.4" y2="158.1"/>
	<line class="st11" x1="258.6" y1="158.1" x2="259.7" y2="158.1"/>
	<line class="st15" x1="250.6" y1="158.1" x2="258.6" y2="158.1"/>
	<line class="st16" x1="249.1" y1="158.1" x2="250.6" y2="158.1"/>
	<line class="st14" x1="239" y1="158.1" x2="249.1" y2="158.1"/>
	<line class="st10" x1="237" y1="158.1" x2="239" y2="158.1"/>
	<line class="st11" x1="234.6" y1="158.1" x2="237" y2="158.1"/>
	<line class="st13" x1="224.4" y1="158.1" x2="234.6" y2="158.1"/>
	<line class="st14" x1="200.5" y1="158.1" x2="224.4" y2="158.1"/>
	<line class="st11" x1="198.1" y1="158.1" x2="200.5" y2="158.1"/>
	<line class="st13" x1="175.7" y1="158.1" x2="198.1" y2="158.1"/>
	<line class="st14" x1="152.4" y1="158.1" x2="175.7" y2="158.1"/>
	<line class="st11" x1="149" y1="158.1" x2="152.4" y2="158.1"/>
	<line class="st13" x1="143.4" y1="158.1" x2="149" y2="158.1"/>
	<line class="st11" x1="128.7" y1="158.1" x2="143.4" y2="158.1"/>
	<line class="st10" x1="126.7" y1="158.1" x2="128.7" y2="158.1"/>
</g>
</svg>
