<?xml version="1.0" encoding="utf-8"?>
<!-- Generator: Adobe Illustrator 21.1.0, SVG Export Plug-In . SVG Version: 6.00 Build 0)  -->
<svg version="1.1" id="Layer_1" xmlns="http://www.w3.org/2000/svg" xmlns:xlink="http://www.w3.org/1999/xlink" x="0px" y="0px"
	 width="300px" height="300px" viewBox="0 0 300 300" style="enable-background:new 0 0 300 300;" xml:space="preserve">
<style type="text/css">
	.st0{fill:#FFFFFF;}
	.st1{fill:#1A1A1A;}
	.st2{fill:none;}
	.st3{fill:#D8DF21;}
	.st4{fill:#333333;}
	.st5{fill:#7B415F;}
	.st6{fill:none;stroke:#8D9025;stroke-width:1.2418;stroke-miterlimit:10;}
	.st7{fill:none;stroke:#7A0141;stroke-width:1.2418;stroke-miterlimit:10;}
	.st8{fill:none;stroke:#3F7FAC;stroke-width:1.2418;stroke-miterlimit:10;}
	.st9{fill:#036959;}
	.st10{fill:none;stroke:#036959;stroke-width:5.2777;stroke-linecap:round;stroke-miterlimit:10;}
	.st11{fill:#059D85;}
	.st12{fill:#F9CE9F;}
	.st13{fill:none;stroke:#FF0000;stroke-width:3.261;stroke-miterlimit:10;}
	.st14{fill:none;stroke:#1A1A1A;stroke-width:5.2777;stroke-linecap:round;stroke-miterlimit:10;}
	.st15{fill:#603813;}
	.st16{fill:#8BC53F;}
	.st17{fill:#AEB41B;}
	.st18{fill:none;stroke:#000000;stroke-width:0.3105;stroke-miterlimit:10;}
	.st19{fill:#4D433A;}
	.st20{fill:#736357;}
	.st21{fill:#594E44;}
	.st22{fill:none;stroke:#1A1A1A;stroke-width:0.4461;stroke-linecap:round;stroke-linejoin:round;stroke-miterlimit:10;}
	.st23{fill:none;stroke:#1A1A1A;stroke-width:0.4461;stroke-linejoin:round;stroke-miterlimit:10;}
	.st24{fill:#695B40;}
	.st25{fill:#AA9368;}
	.st26{fill:#F1F1F1;}
	.st27{fill:#CBCBCB;}
	.st28{fill:#B2B2B2;}
	.st29{fill:#E5E5E5;}
	.st30{fill:none;stroke:#4D4D4D;stroke-width:1.5493;stroke-miterlimit:10;}
	.st31{fill:#3D3B30;}
</style>
<g>
	<polygon class="st0" points="156.8,76.2 143.4,70.1 156.6,69.8 	"/>
	<path class="st1" d="M149.9,181.6l-33.2,80.9c-1.1,2.7-3.7,4.3-6.6,4.3h0c-4.6-0.1-7.8-4.6-6.4-8.9l29.7-99.3l13.5,0.5L149.9,181.6
		z"/>
	<path class="st2" d="M143.4,70.1l-14,77.5c-1.9,10.4,2,21,10.1,27.8l31.1,26c1.6,1.3,2.2,3.5,1.6,5.4l-13.6,50.5
		c-1.4,5.1,2.5,10.1,7.7,10.1h0c3.6,0,6.7-2.4,7.7-5.8l17.6-61.7c0.6-2,0.1-4.1-1.1-5.7l-30-37.7c-1-1.3-1.6-2.8-1.6-4.4l-2.2-82.3
		L143.4,70.1z"/>
	<polygon class="st3" points="156.6,69.8 158.1,126 133.3,126 143.4,70.1 	"/>
	<path class="st2" d="M129.4,158.6L103,258c-1.2,4.7,2.3,9.2,7.1,9.2h0c3,0,5.8-1.9,6.9-4.7l30.8-80.2"/>
	<path class="st4" d="M191.6,199.9l-17.6,61.7c-0.5,1.7-1.5,3.2-2.9,4.2c-1.4,1-3,1.6-4.8,1.6c-5.3,0-9.1-5-7.7-10.1l13.6-50.5
		c0.6-2,0-4.1-1.6-5.4l-31.1-26c-8.1-6.8-12-17.4-10.1-27.8l3.9-21.7h24.9l0.7,26.1c0,1.6,0.6,3.1,1.6,4.4l30,37.7
		C191.7,195.8,192.1,198,191.6,199.9z"/>
	<path class="st5" d="M180.4,238.8l-6.5,22.8c-0.5,1.7-1.5,3.2-2.9,4.2c-1.4,1-3,1.6-4.8,1.6c-5.3,0-9.1-5-7.7-10.1l5.6-20.6
		l0.6-2.1L180.4,238.8z"/>
	<line class="st6" x1="179.7" y1="241.5" x2="163.9" y2="237.4"/>
	<line class="st7" x1="179.1" y1="243.3" x2="163.4" y2="239.2"/>
	<line class="st8" x1="178.6" y1="245.1" x2="162.9" y2="241"/>
	<line class="st6" x1="178.1" y1="246.9" x2="162.5" y2="242.8"/>
	<line class="st7" x1="177.6" y1="248.7" x2="162" y2="244.6"/>
	<line class="st8" x1="177.1" y1="250.5" x2="161.5" y2="246.4"/>
	<line class="st6" x1="176.6" y1="252.3" x2="161" y2="248.2"/>
	<path class="st9" d="M134,120.1h24.7c2,0,3.6,1.6,3.6,3.6v0.8c0,2-1.6,3.6-3.6,3.6H134c-2,0-3.6-1.6-3.6-3.6v-0.8
		C130.3,121.7,132,120.1,134,120.1z"/>
	<path class="st10" d="M156.4,77.8c-1.4-0.6-2.9-0.9-4.5-0.9c-6.4,0-11.6,4.9-11.6,11"/>
	<polygon class="st9" points="214.3,270 212.7,270 209.6,83.7 217.4,83.7 	"/>
	<path class="st1" d="M217.4,83.7l-0.3,15.5h-9.3c-0.9,0-1.7-0.8-1.7-1.7c0-0.5,0.2-0.9,0.5-1.2c0.3-0.3,0.7-0.5,1.2-0.5h0.2
		c0.7,0,1.3-0.6,1.3-1.3c0-0.4-0.1-0.7-0.4-0.9c-0.2-0.2-0.6-0.4-0.9-0.4h-0.2c-0.9,0-1.7-0.8-1.7-1.7c0-0.5,0.2-0.9,0.5-1.2
		c0.3-0.3,0.7-0.5,1.2-0.5h0.2c0.7,0,1.3-0.6,1.3-1.3c0-0.4-0.1-0.7-0.4-0.9c-0.2-0.2-0.6-0.4-0.9-0.4h-0.3c-0.9,0-1.7-0.7-1.7-1.7
		v-0.1c0-0.9,0.7-1.7,1.7-1.7H217.4z"/>
	<path class="st11" d="M128.9,151c0,0-10.1,6.1-23.1,1.4c-13-4.7-14.3-14-9.9-25.1s17.1-25.1,22.4-39.7l13.7-1.2l7.1,8L128.9,151z"
		/>
	<path class="st9" d="M139,94.3c0,0-17.4-0.3-22.7-5.3c-5.3-5-5-9.9,0-17.1s16.5-4.7,20.5-1.2c4,3.4,5.3,5.9,5.3,5.9L139,94.3z"/>
	<path class="st9" d="M120.9,91.6c-1.7,7.2-12.6,32.6-16.9,32.9c-2.5,0.2-4.4-1.1-5.7-2.3c5.2-9.6,14.2-20.7,19.1-32.4
		C118.3,90.5,119.5,91.1,120.9,91.6z"/>
	<path class="st12" d="M185.8,93.8l-31.1-12.1c-3.8-1.5-8.1,0.4-9.5,4.2v0c-1.5,3.8,0.4,8.1,4.2,9.5l34.3,13.3
		c0.6,0.2,1.3,0.3,2,0.3l29.4-1.8c2.9-0.2,5.1-2.6,5.1-5.5v0c0-2.9-2.2-5.3-5.1-5.5l-26.1-1.9C187.8,94.4,186.8,94.2,185.8,93.8z"/>
	<circle class="st12" cx="149.3" cy="45.6" r="25.3"/>
	<path class="st4" d="M174.6,35.5L122,49.1c-0.1-0.8-0.1-1.7-0.1-2.5c0-15.2,12.3-27.5,27.5-27.5C160.6,19.1,170.3,25.9,174.6,35.5z
		"/>
	<polyline class="st14" points="188.4,31.3 172.5,35.4 124.1,47.9 	"/>
	<path class="st15" d="M121.2,33.3c0-0.2,0-0.4-0.2-0.5c-0.5-0.4-1.5-1.7-1.6-4.3c-0.2-3.5-0.6-10.6-11.2-11.6S86.6,24.3,91,37.9
		S90,57.7,86.7,58.3c-2.3,0.4-4.8-0.3-6.1-2.7c-0.3-0.5-1.1-0.3-1.1,0.4C80.1,60.6,83,67.2,95,68.3c18.7,1.8,17-21.8,20.7-25.7
		c1.6-1.7,2.9-2,3.5-2c0.3,0,0.5-0.2,0.5-0.5L121.2,33.3z"/>
	<path class="st16" d="M120.5,43.2l-0.5-0.2c-1.2-0.4-1.9-1.7-1.5-3l2.2-7c0.4-1.2,1.7-1.9,3-1.5l0.5,0.2c1.2,0.4,1.9,1.7,1.5,3
		l-2.2,7C123.1,42.9,121.8,43.6,120.5,43.2z"/>
	<path class="st17" d="M154.7,81.7C154.6,81.7,154.6,81.7,154.7,81.7c-3.9-1.5-8.1,0.4-9.6,4.2l0,0c-1.5,3.8,0.4,8.1,4.2,9.5
		l18.9,8.9c0.7,0.3,1.6,0,1.8-0.8l0,0c0,0,0-0.1,0-0.1l5.5-14.2c0.3-0.7-0.1-1.5-0.9-1.7L154.7,81.7z"/>
	<g>
		<path class="st19" d="M171.9,272.8l-17.3-4.5l4.7-18.2c0.8-3,3.9-4.9,6.9-4.1l6.3,1.6c3,0.8,4.9,3.9,4.1,6.9L171.9,272.8z"/>
		<path class="st20" d="M158.5,253.6l22.9,11c3.8,1.8,5.8,6.1,4.7,10.2l-1.1,4.2l-31.1-8.1L158.5,253.6z"/>
		<polygon class="st20" points="174.9,261.5 171.9,272.8 154.7,268.3 158.5,253.6 		"/>
		<path class="st1" d="M154.7,268.3l-0.7,2.6l-0.5,2.1c-0.2,0.7,0.2,1.3,0.9,1.5l1.9,0.5c0.7,0.2,1.3-0.2,1.5-0.9l0.2-0.9
			c0.2-0.7,0.8-1,1.5-0.9c0.7,0.2,1,0.8,0.9,1.5l-0.2,0.9c-0.2,0.7,0.2,1.3,0.9,1.5l1.9,0.5c0.7,0.2,1.3-0.2,1.5-0.9l0.2-0.9
			c0.2-0.7,0.8-1,1.5-0.9c0.7,0.2,1,0.8,0.9,1.5l-0.2,0.9c-0.2,0.7,0.2,1.3,0.9,1.5l1.9,0.5c0.7,0.2,1.3-0.2,1.5-0.9l0.2-0.9
			c0.2-0.7,0.8-1,1.5-0.9s1,0.8,0.9,1.5l-0.2,0.9c-0.2,0.7,0.2,1.3,0.9,1.5l1.9,0.5c0.7,0.2,1.3-0.2,1.5-0.9l0.2-0.9
			c0.2-0.7,0.8-1,1.5-0.9c0.7,0.2,1,0.8,0.9,1.5l-0.2,0.9c-0.2,0.7,0.2,1.3,0.9,1.5l1.9,0.5c0.7,0.2,1.3-0.2,1.5-0.9l0.5-2.1
			l0.7-2.6L154.7,268.3z"/>
		<polygon class="st21" points="174.9,261.5 171.9,272.8 154.7,268.3 158.5,253.6 		"/>
		<polyline class="st22" points="177.8,250.1 173.5,250.9 176.9,253.6 		"/>
		<polyline class="st22" points="176.9,253.6 172.6,254.3 176,257.1 		"/>
		<polyline class="st22" points="176,257.1 171.7,257.8 175.1,260.5 		"/>
		<path class="st23" d="M177.7,250.1c0,0-3.6-3.3-2.1-4.4S178.5,247.5,177.7,250.1z"/>
		<path class="st23" d="M177.8,250.1c0,0,2.4-4.4,4.3-3.7S180.1,250.7,177.8,250.1z"/>
		<path class="st22" d="M170.1,248c4.4,1.9,7.6,2.2,7.6,2.2s-0.1,2,2,3.7"/>
	</g>
	<path class="st5" d="M126,240l-7.9,22.4c-0.6,1.7-1.7,3.1-3.1,4c-1.4,0.9-3.1,1.4-4.9,1.3c-5.2-0.3-8.8-5.5-7.1-10.5l6.8-20.2
		l0.7-2L126,240z"/>
	<line class="st6" x1="125.1" y1="242.6" x2="109.6" y2="237.5"/>
	<line class="st7" x1="124.4" y1="244.4" x2="109" y2="239.3"/>
	<line class="st8" x1="123.8" y1="246.1" x2="108.4" y2="241"/>
	<line class="st6" x1="123.2" y1="247.9" x2="107.8" y2="242.8"/>
	<line class="st7" x1="122.6" y1="249.6" x2="107.2" y2="244.6"/>
	<line class="st8" x1="121.9" y1="251.4" x2="106.6" y2="246.3"/>
	<line class="st6" x1="121.3" y1="253.1" x2="106" y2="248.1"/>
	<g>
		<path class="st19" d="M115.4,273.4l-17-5.6l5.9-17.9c1-3,4.2-4.6,7.2-3.6l6.1,2c3,1,4.6,4.2,3.6,7.2L115.4,273.4z"/>
		<path class="st20" d="M103.2,253.4l22.2,12.4c3.7,2.1,5.4,6.5,4.1,10.5l-1.3,4.1l-30.5-10L103.2,253.4z"/>
		<polygon class="st20" points="119.1,262.2 115.4,273.4 98.5,267.8 103.2,253.4 		"/>
		<path class="st1" d="M98.5,267.8l-0.8,2.5l-0.7,2c-0.2,0.6,0.1,1.3,0.8,1.5l1.9,0.6c0.6,0.2,1.3-0.1,1.5-0.8l0.3-0.8
			c0.2-0.6,0.9-1,1.5-0.8c0.6,0.2,1,0.9,0.8,1.5l-0.3,0.8c-0.2,0.6,0.1,1.3,0.8,1.5l1.9,0.6c0.6,0.2,1.3-0.1,1.5-0.8l0.3-0.8
			c0.2-0.6,0.9-1,1.5-0.8c0.6,0.2,1,0.9,0.8,1.5l-0.3,0.8c-0.2,0.6,0.1,1.3,0.8,1.5l1.9,0.6c0.6,0.2,1.3-0.1,1.5-0.8l0.3-0.8
			c0.2-0.6,0.9-1,1.5-0.8c0.6,0.2,1,0.9,0.8,1.5l-0.3,0.8c-0.2,0.6,0.1,1.3,0.8,1.5l1.9,0.6c0.6,0.2,1.3-0.1,1.5-0.8l0.3-0.8
			c0.2-0.6,0.9-1,1.5-0.8c0.6,0.2,1,0.9,0.8,1.5l-0.3,0.8c-0.2,0.6,0.1,1.3,0.8,1.5l1.9,0.6c0.6,0.2,1.3-0.1,1.5-0.8l0.7-2l0.8-2.5
			L98.5,267.8z"/>
		<polygon class="st21" points="119.1,262.2 115.4,273.4 98.5,267.8 103.2,253.4 		"/>
		<polyline class="st22" points="122.7,251.1 118.3,251.6 121.6,254.5 		"/>
		<polyline class="st22" points="121.6,254.5 117.2,254.9 120.5,257.9 		"/>
		<polyline class="st22" points="120.5,257.9 116.1,258.3 119.4,261.3 		"/>
		<path class="st23" d="M122.6,251.1c0,0-3.4-3.5-1.8-4.6C122.4,245.4,123.5,248.5,122.6,251.1z"/>
		<path class="st23" d="M122.7,251.1c0,0,2.7-4.3,4.6-3.4C129.1,248.5,124.9,251.8,122.7,251.1z"/>
		<path class="st22" d="M115.1,248.5c4.2,2.2,7.5,2.7,7.5,2.7s-0.2,2,1.7,3.9"/>
	</g>
	<polygon class="st4" points="211.3,184.5 212.7,270 214.3,270 215.7,184.5 	"/>
	<path class="st1" d="M219.3,272.3h-11.7c-0.7,0-1.2-0.5-1.2-1.2v-0.3c0-0.7,0.5-1.2,1.2-1.2h11.7c0.7,0,1.2,0.5,1.2,1.2v0.3
		C220.5,271.8,220,272.3,219.3,272.3z"/>
	<polygon class="st1" points="213.5,280.6 213.5,280.6 211.4,271.1 215.6,271.1 	"/>
</g>
</svg>
