<?xml version="1.0" encoding="utf-8"?>
<!-- Generator: Adobe Illustrator 21.1.0, SVG Export Plug-In . SVG Version: 6.00 Build 0)  -->
<svg version="1.1" id="Layer_1" xmlns="http://www.w3.org/2000/svg" xmlns:xlink="http://www.w3.org/1999/xlink" x="0px" y="0px"
	 width="300px" height="300px" viewBox="0 0 300 300" style="enable-background:new 0 0 300 300;" xml:space="preserve">
<style type="text/css">
	.st0{fill:#FFFFFF;}
	.st1{fill:#1A1A1A;}
	.st2{fill:none;}
	.st3{fill:#D8DF21;}
	.st4{fill:#333333;}
	.st5{fill:#7B415F;}
	.st6{fill:none;stroke:#8D9025;stroke-width:1.2418;stroke-miterlimit:10;}
	.st7{fill:none;stroke:#7A0141;stroke-width:1.2418;stroke-miterlimit:10;}
	.st8{fill:none;stroke:#3F7FAC;stroke-width:1.2418;stroke-miterlimit:10;}
	.st9{fill:#036959;}
	.st10{fill:none;stroke:#036959;stroke-width:5.2777;stroke-linecap:round;stroke-miterlimit:10;}
	.st11{fill:#059D85;}
	.st12{fill:#F9CE9F;}
	.st13{fill:none;stroke:#FF0000;stroke-width:3.261;stroke-miterlimit:10;}
	.st14{fill:none;stroke:#1A1A1A;stroke-width:5.2777;stroke-linecap:round;stroke-miterlimit:10;}
	.st15{fill:#603813;}
	.st16{fill:#8BC53F;}
	.st17{fill:#AEB41B;}
	.st18{fill:none;stroke:#000000;stroke-width:0.3105;stroke-miterlimit:10;}
	.st19{fill:#4D433A;}
	.st20{fill:#736357;}
	.st21{fill:#594E44;}
	.st22{fill:none;stroke:#1A1A1A;stroke-width:0.4461;stroke-linecap:round;stroke-linejoin:round;stroke-miterlimit:10;}
	.st23{fill:none;stroke:#1A1A1A;stroke-width:0.4461;stroke-linejoin:round;stroke-miterlimit:10;}
	.st24{fill:#695B40;}
	.st25{fill:#AA9368;}
	.st26{fill:#F1F1F1;}
	.st27{fill:#CBCBCB;}
	.st28{fill:#B2B2B2;}
	.st29{fill:#E5E5E5;}
	.st30{fill:none;stroke:#4D4D4D;stroke-width:1.5493;stroke-miterlimit:10;}
	.st31{fill:#3D3B30;}
</style>
<g>
	<polygon class="st24" points="42.6,197.6 127.9,256.6 150,256.6 150,96.5 42.6,96.5 	"/>
	<path class="st24" d="M116.4,76.5C112.6,54.8,91.9,40.2,70.1,44S33.8,68.6,37.6,90.4l5.6,31.8l78.9-13.5L116.4,76.5z"/>
	<path class="st25" d="M108.3,77.2c-3-17.4-19.6-29-36.9-25.9c-17.4,3-29,19.6-25.9,36.9l4.4,25.4l62.9-10.7L108.3,77.2z"/>
	<polygon class="st24" points="257.4,197.6 172.1,256.6 150,256.6 150,96.5 257.4,96.5 	"/>
	<path class="st24" d="M183.6,76.5c3.8-21.8,24.6-36.3,46.3-32.5s36.3,24.6,32.5,46.3l-5.6,31.8l-78.9-13.5L183.6,76.5z"/>
	<path class="st25" d="M191.7,77.2c3-17.4,19.6-29,36.9-25.9c17.4,3,29,19.6,25.9,36.9l-4.4,25.4l-62.9-10.7L191.7,77.2z"/>
	<polygon class="st25" points="187.3,246.1 172.1,256.6 127.9,256.6 112.7,246.1 150,199.9 	"/>
	<polygon class="st4" points="150,229.2 127.9,256.6 172.1,256.6 	"/>
	<circle class="st4" cx="95.8" cy="196" r="7.9"/>
	<circle class="st4" cx="204.2" cy="196" r="7.9"/>
</g>
</svg>
