<?xml version="1.0" encoding="utf-8"?>
<!-- Generator: Adobe Illustrator 21.1.0, SVG Export Plug-In . SVG Version: 6.00 Build 0)  -->
<svg version="1.1" id="Layer_1" xmlns="http://www.w3.org/2000/svg" xmlns:xlink="http://www.w3.org/1999/xlink" x="0px" y="0px"
	 width="400px" height="260px" viewBox="0 0 400 260" style="enable-background:new 0 0 400 260;" xml:space="preserve">
<style type="text/css">
	.st0{fill:#FFFFFF;}
	.st1{fill:#1A1A1A;}
	.st2{fill:none;}
	.st3{fill:#D8DF21;}
	.st4{fill:#333333;}
	.st5{fill:#7B415F;}
	.st6{fill:none;stroke:#8D9025;stroke-width:1.2418;stroke-miterlimit:10;}
	.st7{fill:none;stroke:#7A0141;stroke-width:1.2418;stroke-miterlimit:10;}
	.st8{fill:none;stroke:#3F7FAC;stroke-width:1.2418;stroke-miterlimit:10;}
	.st9{fill:#036959;}
	.st10{fill:none;stroke:#036959;stroke-width:5.2777;stroke-linecap:round;stroke-miterlimit:10;}
	.st11{fill:#059D85;}
	.st12{fill:#F9CE9F;}
	.st13{fill:none;stroke:#FF0000;stroke-width:3.261;stroke-miterlimit:10;}
	.st14{fill:none;stroke:#1A1A1A;stroke-width:5.2777;stroke-linecap:round;stroke-miterlimit:10;}
	.st15{fill:#603813;}
	.st16{fill:#8BC53F;}
	.st17{fill:#AEB41B;}
	.st18{fill:none;stroke:#000000;stroke-width:0.3105;stroke-miterlimit:10;}
	.st19{fill:#4D433A;}
	.st20{fill:#736357;}
	.st21{fill:#594E44;}
	.st22{fill:none;stroke:#1A1A1A;stroke-width:0.4461;stroke-linecap:round;stroke-linejoin:round;stroke-miterlimit:10;}
	.st23{fill:none;stroke:#1A1A1A;stroke-width:0.4461;stroke-linejoin:round;stroke-miterlimit:10;}
	.st24{fill:#695B40;}
	.st25{fill:#AA9368;}
	.st26{fill:#F1F1F1;}
	.st27{fill:#CBCBCB;}
	.st28{fill:#B2B2B2;}
	.st29{fill:#E5E5E5;}
	.st30{fill:none;stroke:#4D4D4D;stroke-width:1.5493;stroke-miterlimit:10;}
	.st31{fill:#3D3B30;}
</style>
<g>
	<g>
		<path class="st31" d="M193,172.6c-0.2,0-0.4,0-0.7-0.1c-1-0.4-1.6-1.5-1.2-2.6l7-19.9c-8.8,15-16.8,22.5-24.1,22.5
			c-5.5,0-8.2-2.6-9.5-4.7c-3.2-5.4-2.2-15.2,3.1-29.2c3.8-10.1,8.4-18.6,8.6-19c0.5-1,1.7-1.3,2.7-0.8c1,0.5,1.3,1.7,0.8,2.7
			c-5,9.3-17,35.5-11.7,44.3c1.1,1.9,3.1,2.8,6,2.8c12.3,0,27.3-30.6,37.9-57.4l10.7-30.3c0.4-1,1.5-1.6,2.5-1.2
			c1,0.3,1.6,1.4,1.3,2.5c-0.1,0.2-4.2,13.5-10.5,29.7l-21,59.4C194.5,172.1,193.8,172.6,193,172.6z"/>
	</g>
	<g>
		<path class="st31" d="M203.6,142.5c-0.6,0-1.2-0.3-1.6-0.7c-0.4-0.6-0.6-1.3-0.3-2c0.6-1.5,14.2-35.5,31.3-31.1
			c5.8,1.5,6.5,5.2,6.4,7.2c-0.5,9.5-20,24.2-35.5,26.6C203.8,142.5,203.7,142.5,203.6,142.5z M230,112.2c-9.4,0-18.7,15.9-23,25.5
			c5.8-1.6,12.2-4.8,17.8-9c6.3-4.7,10.5-9.8,10.6-13c0-0.6,0.1-2.3-3.4-3.2C231.3,112.3,230.7,112.2,230,112.2z"/>
	</g>
	<g>
		<path class="st31" d="M286,172.6c-0.2,0-0.4,0-0.7-0.1c-1-0.4-1.6-1.5-1.2-2.5l3.7-10.7c-5.7,7.6-12.7,13.3-20.8,13.3
			c-5.5,0-8.2-2.6-9.5-4.7c-2.1-3.5-2.4-8.8-0.9-16c-9,13.7-17.3,20.7-24.6,20.7c-14.3,0-19.2-32.1-19.8-35.7
			c-0.2-1.1,0.6-2.1,1.7-2.3c1.1-0.1,2.1,0.6,2.3,1.7c1.2,8.4,6.6,32.3,15.8,32.3c10.2,0,22.7-19.6,30.7-35.2
			c3.2-7.7,6.3-13.5,6.5-13.8c0.5-0.9,1.7-1.3,2.6-0.9c1,0.5,1.4,1.6,1,2.6c0,0.1-2.5,5.9-6.4,13.5c-4.7,11.2-8.9,25-5.4,30.9
			c1.1,1.9,3.1,2.8,6,2.8c10.8,0,19.7-13.2,25.2-24.3c1.4-2.8,2.7-5.7,3.8-8.4l5.9-16.9c0.4-1,1.5-1.6,2.5-1.2
			c1,0.3,1.6,1.4,1.3,2.4c-0.2,0.8-2.3,8.4-6.1,17.6l-11.7,33.5C287.6,172.1,286.8,172.6,286,172.6z"/>
	</g>
	<g>
		<path class="st31" d="M141,172.6c-3.4,0-6.1-1.4-7.8-4.1c-5.2-8.2-1.6-29.8,10.9-64.1c9.2-25.2,19.9-48.4,20-48.6
			c0.5-1,1.7-1.4,2.7-1c1,0.5,1.4,1.7,1,2.7c-11.8,25.4-40.4,94.5-31.2,108.9c1,1.6,2.4,2.3,4.4,2.3c10.3,0,18.7-11.9,24-22
			c0.5-1,1.7-1.4,2.7-0.8c1,0.5,1.4,1.7,0.8,2.7C160.1,164.5,150.8,172.6,141,172.6z"/>
	</g>
	<g>
		<path class="st31" d="M326,172.6c-3.6,0-6.3-1.2-8-3.6c-3.1-4.2-2.8-11.5,0.8-23c0.7-2.2,1.6-4.6,2.6-7.2
			c2.6-6.7,6.1-15.8,3.8-18.9c-0.7-1-2.3-1.4-4.6-1.3c-13.5,0.9-20.7,18.6-20.8,18.7c-0.4,1-1.6,1.5-2.6,1.1c-1-0.4-1.5-1.6-1.1-2.6
			c0.3-0.8,8.3-20.2,24.2-21.2c3.8-0.3,6.5,0.7,8.1,2.9c3.6,4.9,0.1,14-3.3,22.7c-1,2.5-1.9,4.9-2.6,7c-3.9,12.3-2.9,17.4-1.4,19.4
			c1,1.3,2.5,2,4.8,2c7.7,0,13.2-17.4,14.5-23.4c0.2-1.1,1.3-1.8,2.4-1.5c1.1,0.2,1.8,1.3,1.5,2.4c-0.1,0.3-1.4,6.5-4.2,12.9
			C336.2,168,331.4,172.6,326,172.6z"/>
	</g>
	<g>
		<path class="st31" d="M353,172.4c-0.8,0-1.5-0.1-2-0.2c-6.6-1.2-11-8.2-11.3-17.6c-0.5-12.9,5.2-27.3,13.8-35
			c4.5-4,9.4-5.8,14.2-5.1c4.5,0.7,7.9,2.6,10.2,5.7c3.7,5.1,2.7,11.4,2.6,11.6c-0.2,1.1-1.2,1.8-2.3,1.6c-1.1-0.2-1.8-1.2-1.6-2.3
			c0-0.1,0.8-5-1.9-8.7c-1.6-2.2-4.1-3.5-7.5-4c-4.5-0.7-8.4,1.9-10.9,4.1c-7.6,6.8-12.9,20.2-12.5,31.9c0.3,7.5,3.4,13,8.1,13.8
			c4.7,0.9,11.9-3,17.8-16.6c0.4-1,1.6-1.5,2.6-1c1,0.4,1.5,1.6,1,2.6C366,170,357.4,172.4,353,172.4z"/>
	</g>
	<g>
		<path class="st31" d="M305.2,253.3c-9.2,0-17.1-3.2-22.6-9.1c-6.4-7-8.9-16.9-7.1-28c0.2-1.1,1.2-1.8,2.3-1.7
			c1.1,0.2,1.8,1.2,1.7,2.3c-1.6,9.8,0.6,18.6,6.1,24.6c5.3,5.7,13.3,8.5,22.7,7.7c16.2-1.3,26.3-12.3,31.8-21.2
			c8.9-14.3,14.6-31.7,20.1-48.5c1.4-4.3,2.9-8.8,4.4-13.1c5.5-15.8,10.7-31.4,15.5-46.4c0.3-1.1,1.5-1.6,2.5-1.3
			c1.1,0.3,1.6,1.5,1.3,2.5c-4.8,15-10,30.6-15.5,46.5c-1.5,4.3-3,8.8-4.4,13.1c-5.6,17-11.4,34.6-20.5,49.3
			c-8.7,14-20.7,22-34.9,23.1C307.4,253.3,306.3,253.3,305.2,253.3z"/>
	</g>
	<g>
		<path class="st31" d="M60.5,176.6c-0.2,0-0.5,0-0.7-0.1c-1-0.4-1.5-1.6-1.2-2.6c0.2-0.4,16.3-42.6,33.9-92.9
			c5.1-14.6,11-41.7-6.6-59.8C74.5,9.4,52.1,5.2,33,20.4C22.2,29,17.4,45,21.5,59.2c3.8,13.1,14.3,21.6,29,23.3
			c7.1,0.8,15.7-1.7,18.7-9.2c1.2-2.8,1.8-7.1,0.2-10.5c-1-2.1-2.7-3.5-5.1-4.2c-1.1-0.3-1.7-1.4-1.3-2.5c0.3-1.1,1.4-1.7,2.5-1.3
			c3.5,1.1,6.1,3.2,7.6,6.3c2.2,4.6,1.4,10.1-0.1,13.7C69.6,83,60.4,87.6,50,86.4c-16.3-1.9-28.1-11.4-32.4-26.1
			c-4.5-15.7,0.8-33.4,12.9-43C38.4,11,48.6,7.2,58.7,6.7C66.9,6.3,78.8,8,88.8,18.3c19.1,19.7,12.9,48.5,7.5,63.9
			c-17.6,50.4-33.8,92.6-33.9,93.1C62.1,176.1,61.3,176.6,60.5,176.6z"/>
	</g>
	<g>
		<path class="st31" d="M145.9,122.6h-76c-1.1,0-2-0.9-2-2s0.9-2,2-2h76c1.1,0,2,0.9,2,2S147,122.6,145.9,122.6z"/>
	</g>
	<g>
		<path class="st31" d="M72.1,203c0-0.1,0-0.2,0.1-0.3l11.1-18.7c0.4-0.7,1.4-1,2.2-1s1.6,0.3,1.7,1l0.4,18.7c0,0.1,0,0.2,0,0.3
			c-0.2,0.7-1.4,1.3-2.3,1.3c-0.5,0-0.8-0.2-0.9-0.6l0-4.1h-7.1l-2.4,4.1c-0.3,0.5-0.7,0.6-1.2,0.6C72.8,204.3,71.8,203.8,72.1,203z
			 M84.3,197.1l0-9.9l-5.7,9.9H84.3z"/>
		<path class="st31" d="M103.7,203.2l-3.1-13.1l-3.8,13.2c-0.2,0.7-1,1-1.8,1c-0.8,0-1.4-0.3-1.2-1l5.5-19.1c0.2-0.7,1-1,1.8-1
			c1.1,0,1.5,0.4,1.8,1.7l2.8,12.5l3.8-13.2c0.2-0.7,1.1-1,1.8-1c0.8,0,1.4,0.3,1.2,1l-5.5,19.1c-0.2,0.7-1,1-1.8,1
			C104.5,204.3,103.9,203.9,103.7,203.2z"/>
		<path class="st31" d="M123.3,203c0-0.1,0-0.2,0.1-0.3l11.1-18.7c0.4-0.7,1.4-1,2.2-1s1.6,0.3,1.7,1l0.4,18.7c0,0.1,0,0.2,0,0.3
			c-0.2,0.7-1.4,1.3-2.3,1.3c-0.5,0-0.8-0.2-0.9-0.6l0-4.1h-7.1l-2.4,4.1c-0.3,0.5-0.7,0.6-1.2,0.6C124,204.3,123,203.8,123.3,203z
			 M135.5,197.1l0-9.9l-5.7,9.9H135.5z"/>
		<path class="st31" d="M157.1,183.2c3.7,0,6,1.8,4.6,6.4l-2.4,8.2c-1.3,4.7-4.7,6.4-8.3,6.4H146c-0.8,0-1.2-0.5-1.1-1l5.5-19.1
			c0.1-0.5,0.8-1,1.6-1H157.1z M153,185.9l-4.5,15.7h3.4c2.2,0,3.8-1.2,4.5-3.7l2.4-8.2c0.7-2.5-0.2-3.7-2.4-3.7H153z"/>
		<path class="st31" d="M169.3,184.8c0-0.1,0-0.2,0-0.3c0.2-0.7,1.4-1.3,2.3-1.3c0.5,0,0.9,0.2,0.9,0.6l0,16.4l9.4-16.4
			c0.3-0.5,0.7-0.6,1.2-0.6c0.9,0,1.8,0.5,1.6,1.3c0,0.1-0.1,0.2-0.1,0.3l-11.1,18.7c-0.4,0.7-1.4,1-2.2,1s-1.6-0.3-1.6-1
			L169.3,184.8z"/>
		<path class="st31" d="M191.8,192.6h4.4c0.6,0,0.8,0.6,0.7,1.2c-0.2,0.5-0.7,1.2-1.3,1.2h-4.4l-1.9,6.6h8.6c0.6,0,0.8,0.6,0.6,1.4
			c-0.2,0.6-0.7,1.3-1.4,1.3h-10.3c-0.7,0-1.3-0.3-1.1-1l5.5-19.1c0.2-0.7,1-1,1.6-1h10.3c0.7,0,0.8,0.7,0.6,1.3
			c-0.2,0.7-0.8,1.4-1.4,1.4h-8.6L191.8,192.6z"/>
		<path class="st31" d="M214.8,203.2l-3.1-13.1l-3.8,13.2c-0.2,0.7-1,1-1.8,1c-0.8,0-1.4-0.3-1.2-1l5.5-19.1c0.2-0.7,1-1,1.8-1
			c1.1,0,1.5,0.4,1.8,1.7l2.8,12.5l3.8-13.2c0.2-0.7,1.1-1,1.8-1c0.8,0,1.4,0.3,1.2,1l-5.5,19.1c-0.2,0.7-1,1-1.8,1
			C215.5,204.3,215,203.9,214.8,203.2z"/>
		<path class="st31" d="M243.2,183.2c0.7,0,0.8,0.7,0.6,1.4c-0.2,0.8-0.8,1.4-1.4,1.4h-4.4l-5,17.3c-0.2,0.7-1.1,1-1.8,1
			c-0.8,0-1.4-0.3-1.2-1l5-17.3h-4.5c-0.6,0-0.8-0.7-0.6-1.4c0.2-0.7,0.7-1.4,1.4-1.4H243.2z"/>
		<path class="st31" d="M260.3,184.2c0.2-0.7,1-1,1.8-1c0.8,0,1.4,0.3,1.2,1l-4,13.8c-1.3,4.7-4.7,6.4-8.4,6.4
			c-3.7,0-6.1-1.8-4.7-6.4l4-13.8c0.2-0.7,1-1,1.8-1c0.7,0,1.4,0.3,1.2,1l-4,13.8c-0.7,2.5,0.3,3.7,2.5,3.7c2.2,0,3.9-1.2,4.6-3.7
			L260.3,184.2z"/>
		<path class="st31" d="M271.1,184.2c0.1-0.5,0.7-1,1.3-1h5.5c3.6,0,6.2,1.4,4.9,5.9c-1,3.4-3.2,5.1-5.7,5.7l1.9,7.6
			c0,0.1,0,0.3,0,0.4c-0.2,0.8-1.4,1.6-2.3,1.6c-0.5,0-0.8-0.3-1-0.9l-1.8-8.2H271l-2.3,8c-0.2,0.7-1,1-1.8,1c-0.8,0-1.4-0.3-1.2-1
			L271.1,184.2z M273.6,185.9l-2,6.9h3.5c2.2,0,3.8-0.9,4.6-3.4c0.7-2.5-0.4-3.4-2.6-3.4H273.6z"/>
		<path class="st31" d="M291.9,192.6h4.4c0.6,0,0.8,0.6,0.7,1.2c-0.2,0.5-0.7,1.2-1.3,1.2h-4.4l-1.9,6.6h8.6c0.6,0,0.8,0.6,0.6,1.4
			c-0.2,0.6-0.7,1.3-1.4,1.3h-10.3c-0.7,0-1.3-0.3-1.1-1l5.5-19.1c0.2-0.7,1-1,1.6-1h10.3c0.7,0,0.8,0.7,0.6,1.3
			c-0.2,0.7-0.8,1.4-1.4,1.4h-8.6L291.9,192.6z"/>
	</g>
	<g>
		<path class="st31" d="M327.5,192.6h-15.9c-1.1,0-2-0.9-2-2s0.9-2,2-2h15.9c1.1,0,2,0.9,2,2S328.6,192.6,327.5,192.6z"/>
	</g>
	<g>
		<path class="st31" d="M68.7,193.1H53.3c-0.8,0-1.5-0.7-1.5-1.5s0.7-1.5,1.5-1.5h15.3c0.8,0,1.5,0.7,1.5,1.5S69.5,193.1,68.7,193.1
			z"/>
	</g>
	<g>
		<path class="st31" d="M185.3,107.4c-3.7,0-6.8-3.1-6.8-6.8s3.1-6.8,6.8-6.8s6.8,3.1,6.8,6.8S189,107.4,185.3,107.4z M185.3,97.8
			c-1.5,0-2.8,1.3-2.8,2.8s1.3,2.8,2.8,2.8s2.8-1.3,2.8-2.8S186.8,97.8,185.3,97.8z"/>
	</g>
	<g>
		<circle class="st31" cx="275.3" cy="108.6" r="4.8"/>
	</g>
	<g>
		<path class="st31" d="M185.3,97.8c-1.1,0-2-0.9-2-2v-7.2c0-1.1,0.9-2,2-2s2,0.9,2,2v7.2C187.3,96.9,186.4,97.8,185.3,97.8z"/>
	</g>
	<g>
		<path class="st31" d="M197.3,102.6h-7.2c-1.1,0-2-0.9-2-2s0.9-2,2-2h7.2c1.1,0,2,0.9,2,2S198.4,102.6,197.3,102.6z"/>
	</g>
	<g>
		<path class="st31" d="M185.3,114.6c-1.1,0-2-0.9-2-2v-7.2c0-1.1,0.9-2,2-2s2,0.9,2,2v7.2C187.3,113.7,186.4,114.6,185.3,114.6z"/>
	</g>
	<g>
		<path class="st31" d="M180.5,102.6h-7.2c-1.1,0-2-0.9-2-2s0.9-2,2-2h7.2c1.1,0,2,0.9,2,2S181.6,102.6,180.5,102.6z"/>
	</g>
	<g>
		<path class="st31" d="M181.9,99.2c-0.5,0-1-0.2-1.4-0.6l-5.1-5.1c-0.8-0.8-0.8-2,0-2.8c0.8-0.8,2-0.8,2.8,0l5.1,5.1
			c0.8,0.8,0.8,2,0,2.8C182.9,99,182.4,99.2,181.9,99.2z"/>
	</g>
	<g>
		<path class="st31" d="M188.6,99.2c-0.5,0-1-0.2-1.4-0.6c-0.8-0.8-0.8-2,0-2.8l5.1-5.1c0.8-0.8,2-0.8,2.8,0c0.8,0.8,0.8,2,0,2.8
			l-5.1,5.1C189.7,99,189.2,99.2,188.6,99.2z"/>
	</g>
	<g>
		<path class="st31" d="M193.7,111.1c-0.5,0-1-0.2-1.4-0.6l-5.1-5.1c-0.8-0.8-0.8-2,0-2.8c0.8-0.8,2-0.8,2.8,0l5.1,5.1
			c0.8,0.8,0.8,2,0,2.8C194.8,110.9,194.2,111.1,193.7,111.1z"/>
	</g>
	<g>
		<path class="st31" d="M176.8,111.1c-0.5,0-1-0.2-1.4-0.6c-0.8-0.8-0.8-2,0-2.8l5.1-5.1c0.8-0.8,2-0.8,2.8,0c0.8,0.8,0.8,2,0,2.8
			l-5.1,5.1C177.8,110.9,177.3,111.1,176.8,111.1z"/>
	</g>
</g>
</svg>
