<?xml version="1.0" encoding="utf-8"?>
<!-- Generator: Adobe Illustrator 21.1.0, SVG Export Plug-In . SVG Version: 6.00 Build 0)  -->
<svg version="1.1" id="Layer_1" xmlns="http://www.w3.org/2000/svg" xmlns:xlink="http://www.w3.org/1999/xlink" x="0px" y="0px"
	 width="300px" height="300px" viewBox="0 0 300 300" style="enable-background:new 0 0 300 300;" xml:space="preserve">
<style type="text/css">
	.st0{fill:#FFFFFF;}
	.st1{fill:#1A1A1A;}
	.st2{fill:none;}
	.st3{fill:#D8DF21;}
	.st4{fill:#333333;}
	.st5{fill:#7B415F;}
	.st6{fill:none;stroke:#8D9025;stroke-width:1.2418;stroke-miterlimit:10;}
	.st7{fill:none;stroke:#7A0141;stroke-width:1.2418;stroke-miterlimit:10;}
	.st8{fill:none;stroke:#3F7FAC;stroke-width:1.2418;stroke-miterlimit:10;}
	.st9{fill:#036959;}
	.st10{fill:none;stroke:#036959;stroke-width:5.2777;stroke-linecap:round;stroke-miterlimit:10;}
	.st11{fill:#059D85;}
	.st12{fill:#F9CE9F;}
	.st13{fill:none;stroke:#FF0000;stroke-width:3.261;stroke-miterlimit:10;}
	.st14{fill:none;stroke:#1A1A1A;stroke-width:5.2777;stroke-linecap:round;stroke-miterlimit:10;}
	.st15{fill:#603813;}
	.st16{fill:#8BC53F;}
	.st17{fill:#AEB41B;}
	.st18{fill:none;stroke:#000000;stroke-width:0.3105;stroke-miterlimit:10;}
	.st19{fill:#4D433A;}
	.st20{fill:#736357;}
	.st21{fill:#594E44;}
	.st22{fill:none;stroke:#1A1A1A;stroke-width:0.4461;stroke-linecap:round;stroke-linejoin:round;stroke-miterlimit:10;}
	.st23{fill:none;stroke:#1A1A1A;stroke-width:0.4461;stroke-linejoin:round;stroke-miterlimit:10;}
	.st24{fill:#695B40;}
	.st25{fill:#AA9368;}
	.st26{fill:#F1F1F1;}
	.st27{fill:#CBCBCB;}
	.st28{fill:#B2B2B2;}
	.st29{fill:#E5E5E5;}
	.st30{fill:none;stroke:#4D4D4D;stroke-width:1.5493;stroke-miterlimit:10;}
	.st31{fill:#3D3B30;}
</style>
<g>
	<polygon class="st26" points="32.8,147.3 25.5,174.9 38.2,219.1 71.5,225.8 93.7,248.8 120.8,256 141.2,250.6 160.3,248.3 
		190.3,225.3 189,213.9 233.9,212.6 249.2,189.6 274.5,185.5 261.6,168.5 225.1,78.1 229.8,78.1 219.5,52.3 203.5,60.5 191.6,59.2 
		182.5,68.3 175.3,72.1 180,79.4 167.8,90 153.9,71.6 156.7,70.1 137.9,67.2 96,44 80,60 88,84.5 97.1,97.2 56.3,102.6 29.2,119.1 
		31.2,126.6 27.6,140.3 	"/>
	<polygon class="st2" points="225.1,78.1 194.2,90.2 204.6,140.9 199.1,144.2 199.1,139.8 194.2,146.3 199.1,155.6 174,222.7 
		131.7,200.7 145.1,158.7 161.9,99 167.8,90 180,79.4 175.3,72.1 182.5,68.3 191.6,59.2 203.5,60.5 219.5,52.3 229.8,78.1 	"/>
	<polygon class="st2" points="174,222.7 120.8,256 93.7,248.8 131.7,200.7 	"/>
	<polygon class="st26" points="205.5,183.7 208.4,159.2 194.2,90.2 225.1,78.1 261.6,168.5 263.1,183.7 	"/>
	<polygon class="st27" points="156.7,70.1 153.9,71.6 114.4,80.9 97.1,97.2 88,84.5 80,60 96,44 137.9,67.2 	"/>
	<polygon class="st2" points="93.7,248.8 71.5,225.8 38.2,219.1 25.5,174.9 32.8,147.3 48.5,170 63.2,165.9 63.2,182.1 	"/>
	<polygon class="st26" points="225.1,78.1 194.2,90.2 204.6,140.9 199.1,144.2 199.1,139.8 194.2,146.3 199.1,155.6 174,222.7 
		131.7,200.7 145.1,158.7 161.9,99 167.8,90 180,79.4 175.3,72.1 182.5,68.3 191.6,59.2 203.5,60.5 219.5,52.3 229.8,78.1 	"/>
	<polygon class="st28" points="50.3,111.8 63.1,104 97.1,97.2 113.5,117.2 59.6,110.6 	"/>
	<polygon class="st0" points="113.5,117.2 156.7,117.4 161.9,99 167.8,90 153.9,71.6 114.4,80.9 97.1,97.2 	"/>
	<polygon class="st29" points="31.2,126.6 53,145.1 70.9,139.3 81.9,162.9 97.1,174.5 106.9,193.9 106.9,204.4 95.3,204.4 
		102.2,217.5 93.7,248.8 63.2,182.1 63.2,165.9 48.5,170 27.6,140.3 	"/>
	<polygon class="st2" points="106.9,193.9 118.4,183.7 125.5,196.2 133.9,193.9 131.7,200.7 93.7,248.8 102.2,217.5 95.3,204.4 
		106.9,204.4 	"/>
	<polygon class="st0" points="194.2,146.3 170.8,111.4 167.8,97.2 161.9,99 156.7,117.4 148.8,145.5 143.3,164.2 133.9,193.9 
		131.7,200.7 174,222.7 199.1,155.6 	"/>
	<polygon class="st27" points="89.8,200.7 97.1,220.2 77.5,213.4 93.7,248.8 102.2,217.5 95.3,204.4 106.9,204.4 106.9,193.9 	"/>
	<polygon class="st29" points="189,213.9 216.1,193.9 263.1,183.7 249.2,189.6 233.9,212.6 	"/>
	<polygon class="st0" points="189,213.9 183.2,198 174,222.7 120.8,256 141.2,250.6 160.3,248.3 190.3,225.3 	"/>
	<polygon class="st28" points="263.1,183.7 205.5,183.7 208.4,159.2 204.6,140.9 199.1,144.2 199.1,139.8 194.2,146.3 199.1,155.6 
		183.2,198 189,213.9 216.1,193.9 	"/>
	<polyline class="st30" points="156.7,117.4 144.4,117.4 120.4,117.2 113.5,117.2 59.6,110.6 50.3,111.8 63.1,104 97.1,97.2 
		113.5,117.2 	"/>
	<polygon class="st28" points="194.2,146.3 170.8,111.4 167.8,97.2 194.2,90.2 194.9,94 208.4,159.2 205.5,183.7 263.1,183.7 
		261.6,168.5 274.5,185.5 249.2,189.6 233.9,212.6 189,213.9 183.2,198 199.1,155.6 	"/>
	<polygon class="st0" points="208.4,159.2 194.2,90.2 225.1,78.1 261.6,168.5 	"/>
	<polyline class="st30" points="225.1,78.1 194.2,90.2 167.8,97.2 161.9,99 150,141.2 131.7,200.7 93.7,248.8 63.2,182.1 
		63.2,165.9 48.5,170 27.6,140.3 	"/>
	<polyline class="st30" points="194.2,90.2 208.4,159.2 205.5,183.7 263.1,183.7 261.6,168.5 	"/>
	<polyline class="st30" points="199.1,155.6 174,222.7 120.8,256 	"/>
	<polyline class="st30" points="97.1,97.2 114.4,80.9 156.7,70.1 	"/>
	<polygon class="st30" points="32.8,147.3 25.5,174.9 38.2,219.1 71.5,225.8 93.7,248.8 120.8,256 141.2,250.6 160.3,248.3 
		190.3,225.3 189,213.9 233.9,212.6 249.2,189.6 274.5,185.5 261.6,168.5 225.1,78.1 229.8,78.1 219.5,52.3 203.5,60.5 191.6,59.2 
		182.5,68.3 175.3,72.1 180,79.4 167.8,90 153.9,71.6 156.7,70.1 137.9,67.2 96,44 80,60 88,84.5 97.1,97.2 56.3,102.6 29.2,119.1 
		31.2,126.6 27.6,140.3 	"/>
	<polyline class="st30" points="31.2,126.6 53,145.1 70.9,139.3 81.9,162.9 97.1,174.5 106.9,193.9 106.9,204.4 95.3,204.4 
		102.2,217.5 93.7,248.8 	"/>
</g>
</svg>
