<?xml version="1.0" encoding="utf-8"?>
<!-- Generator: Adobe Illustrator 21.1.0, SVG Export Plug-In . SVG Version: 6.00 Build 0)  -->
<svg version="1.1" id="Layer_1" xmlns="http://www.w3.org/2000/svg" xmlns:xlink="http://www.w3.org/1999/xlink" x="0px" y="0px"
	 width="700px" height="700px" viewBox="0 0 700 700" style="enable-background:new 0 0 700 700;" xml:space="preserve">
<style type="text/css">
	.st0{fill:#EDE488;}
	.st1{fill:#D9E021;}
	.st2{fill:#8CC63F;}
	.st3{fill:#93AD2D;}
	.st4{opacity:0.5;fill:#808080;}
	.st5{fill:#E3BF91;}
	.st6{fill:#FFDCB2;}
	.st7{fill:#332617;}
	.st8{fill:#A67D4A;}
	.st9{fill:#B58851;}
	.st10{fill:#916D41;}
	.st11{fill:#E8C394;}
	.st12{display:none;fill:#808080;}
	.st13{fill:#A4A9B0;}
	.st14{fill:#DB636B;}
	.st15{fill:#BCC2C9;}
	.st16{fill:none;stroke:#80848A;stroke-width:3.6301;stroke-linecap:round;stroke-miterlimit:10;}
	.st17{fill:none;stroke:#000000;stroke-miterlimit:10;}
	.st18{fill:none;stroke:#000000;stroke-width:3.4296;stroke-linecap:round;stroke-miterlimit:10;}
	.st19{fill:#FBE05A;}
	.st20{fill:#E6CB49;}
	.st21{fill:#FBB03B;}
	.st22{fill:none;stroke:#FF0000;stroke-width:5;stroke-miterlimit:10;}
	.st23{fill:none;stroke:#FF0000;stroke-width:5.6721;stroke-miterlimit:10;}
	.st24{fill:#A5BE00;}
	.st25{fill:#ED5E36;}
	.st26{fill:#944B36;}
	.st27{fill:#4885B0;}
	.st28{fill:#366D94;}
	.st29{fill:#679436;}
	.st30{fill:none;stroke:#9C6D24;stroke-width:5;stroke-linecap:round;stroke-linejoin:round;stroke-miterlimit:10;}
	.st31{fill:#808080;stroke:#808080;stroke-width:4;stroke-miterlimit:10;}
	.st32{fill:none;stroke:#C98D2F;stroke-width:5;stroke-linecap:round;stroke-linejoin:round;stroke-miterlimit:10;}
	.st33{fill:#808080;}
	.st34{fill:#999999;}
	.st35{opacity:0.5;fill:#8CBCDE;}
	.st36{fill:none;stroke:#4885B0;stroke-width:7;stroke-linecap:round;stroke-linejoin:round;stroke-miterlimit:10;}
	.st37{fill:none;stroke:#9C6D24;stroke-width:6.4697;stroke-linecap:round;stroke-linejoin:round;stroke-miterlimit:10;}
	.st38{fill:#808080;stroke:#808080;stroke-width:5.1757;stroke-miterlimit:10;}
	.st39{fill:none;stroke:#C98D2F;stroke-width:6.4697;stroke-linecap:round;stroke-linejoin:round;stroke-miterlimit:10;}
	.st40{fill:none;stroke:#4885B0;stroke-width:9.0575;stroke-linecap:round;stroke-linejoin:round;stroke-miterlimit:10;}
	.st41{fill:none;stroke:#D99933;stroke-width:6.4697;stroke-linecap:round;stroke-linejoin:round;stroke-miterlimit:10;}
	.st42{fill:none;stroke:#855A32;stroke-width:9;stroke-linecap:round;stroke-miterlimit:10;}
	.st43{fill:#855A32;}
	.st44{fill:none;stroke:#A6713F;stroke-width:9;stroke-linecap:round;stroke-miterlimit:10;}
	.st45{fill:#A6713F;}
	.st46{fill:none;stroke:#B87C46;stroke-width:9;stroke-linecap:round;stroke-miterlimit:10;}
	.st47{fill:#FFFFFF;}
	.st48{fill:#B87C46;}
	.st49{fill:#9FB31B;}
	.st50{fill:#BDCC62;}
	.st51{fill:#332724;}
	.st52{fill:#D59563;}
	.st53{fill:#6B9A76;}
	.st54{opacity:0.5;fill:#4885B0;}
	.st55{fill:#EBF2A9;}
	.st56{fill:#ED9077;}
	.st57{fill:#F1FFD6;}
	.st58{fill:#91B4CF;}
	.st59{fill:#C1CFDB;}
	.st60{fill:#50732A;}
	.st61{clip-path:url(#SVGID_2_);fill:#F2F2F2;}
	.st62{clip-path:url(#SVGID_2_);}
	.st63{fill:none;stroke:#E3E3E3;stroke-miterlimit:10;}
	.st64{fill:#333333;}
	.st65{fill:url(#SVGID_3_);}
	.st66{fill:#666666;}
	.st67{fill:#4D4D4D;}
	.st68{fill:none;}
	.st69{fill:#323031;}
	.st70{fill:#161616;}
	.st71{fill:#262626;}
	.st72{fill:#C48A2E;}
	.st73{display:none;fill:#FFFFFF;}
	.st74{fill:#A8B56E;}
	.st75{fill:#B8525A;}
	.st76{fill:#89A325;}
	.st77{fill:#434141;}
	.st78{fill:#292828;}
	.st79{fill:#B2BF7B;}
	.st80{fill:#7F5E35;}
	.st81{fill:#EDC99E;}
	.st82{fill:#CEA678;}
	.st83{fill:#E0B889;}
	.st84{fill:#A37844;}
	.st85{fill:#D1AD7F;}
	.st86{fill:#A0D0D9;}
	.st87{fill:#4A84A6;}
	.st88{fill:#4F8DB0;}
	.st89{fill:#ADDFE9;}
	.st90{fill:#5597BD;}
	.st91{fill:#757575;}
	.st92{fill:#525252;}
	.st93{fill:none;stroke:#333333;stroke-width:2;stroke-miterlimit:10;}
	.st94{fill:none;stroke:#262626;stroke-width:2;stroke-miterlimit:10;}
	.st95{fill:#989DA3;}
	.st96{fill:url(#SVGID_4_);}
	.st97{fill:#B3B3B3;}
	.st98{fill:#CCCCCC;}
	.st99{fill:none;stroke:#4D4D4D;stroke-width:2;stroke-miterlimit:10;}
	.st100{fill:none;stroke:#37323E;stroke-width:6;stroke-miterlimit:10;}
	.st101{fill:#DE9E36;}
	.st102{fill:#BFBDC1;}
	.st103{fill:#6D6A75;}
	.st104{fill:#37323E;}
	.st105{fill:#DEB841;}
	.st106{fill:#996D25;}
	.st107{fill:#C4861E;}
	.st108{fill:#E39922;}
	.st109{fill:none;stroke:#FFFFFF;stroke-width:10.6511;stroke-miterlimit:10;}
	.st110{fill:none;stroke:#FFFFFF;stroke-width:5.4942;stroke-linecap:round;stroke-miterlimit:10;}
	.st111{fill:none;stroke:#FFFFFF;stroke-width:9.2497;stroke-linecap:round;stroke-miterlimit:10;}
	.st112{fill:none;stroke:#FFFFFF;stroke-width:8.9934;stroke-miterlimit:10;}
</style>
<g>
	<polygon class="st80" points="268.2,129.2 285.4,165.8 228.8,204.6 	"/>
	<polygon class="st10" points="431.8,129.2 414.6,165.8 471.2,204.6 	"/>
	<polygon class="st81" points="350,561.8 519.6,536.3 554.4,449.7 547.8,351.5 532.1,215.4 414.6,165.8 350,159.6 350,159.6 
		285.4,165.8 167.9,215.4 152.2,351.5 145.6,449.7 180.4,536.3 350,561.8 	"/>
	<polygon class="st82" points="316.3,254.3 261.3,296.3 153.6,339 167.9,215.4 285.4,165.8 300.1,164.4 	"/>
	<polygon class="st82" points="248.3,512.3 228.8,543.6 180.4,536.3 145.6,449.6 148,414.2 233.3,448.3 	"/>
	<polygon class="st83" points="544.6,323.4 454.4,419.3 383.3,373.3 383.3,296.3 525.6,230.1 534.9,239.5 	"/>
	<polygon class="st9" points="431.8,129.2 619.4,199.9 601.5,454.4 	"/>
	<polygon class="st84" points="268.2,129.2 80.6,199.9 98.5,454.4 	"/>
	<polygon class="st71" points="398.3,412.5 350,469.5 301.7,412.5 	"/>
	<polygon class="st85" points="350,570.8 292.9,552.4 350,469.5 414.6,550 	"/>
	<circle class="st71" cx="252.5" cy="360.7" r="23.7"/>
	<circle class="st7" cx="443.8" cy="360.7" r="23.7"/>
	<polygon class="st10" points="431.8,129.2 414.6,165.8 471.2,204.6 	"/>
	<polygon class="st6" points="554.4,449.6 519.6,536.3 402.4,553.9 350,561.8 350,159.6 414.6,165.8 461.2,185.5 532.1,215.4 
		534.9,239.5 544.6,323.4 547.8,351.5 	"/>
	<polygon class="st83" points="544.6,323.4 454.4,419.3 383.3,373.3 383.3,296.3 525.6,230.1 534.9,239.5 	"/>
	<polygon class="st9" points="431.8,129.2 619.4,199.9 601.5,454.4 	"/>
	<polygon class="st64" points="398.3,412.5 350,469.5 350,412.5 	"/>
	<polygon class="st5" points="414.6,550 402.4,553.9 350,570.8 350,469.5 	"/>
	<circle class="st64" cx="443.8" cy="360.7" r="23.7"/>
</g>
</svg>
