<?xml version="1.0" encoding="utf-8"?>
<!-- Generator: Adobe Illustrator 21.1.0, SVG Export Plug-In . SVG Version: 6.00 Build 0)  -->
<svg version="1.1" id="Layer_1" xmlns="http://www.w3.org/2000/svg" xmlns:xlink="http://www.w3.org/1999/xlink" x="0px" y="0px"
	 width="700px" height="700px" viewBox="0 0 700 700" style="enable-background:new 0 0 700 700;" xml:space="preserve">
<style type="text/css">
	.st0{fill:#EDE488;}
	.st1{fill:#D9E021;}
	.st2{fill:#8CC63F;}
	.st3{fill:#93AD2D;}
	.st4{opacity:0.5;fill:#808080;}
	.st5{fill:#E3BF91;}
	.st6{fill:#FFDCB2;}
	.st7{fill:#332617;}
	.st8{fill:#A67D4A;}
	.st9{fill:#B58851;}
	.st10{fill:#916D41;}
	.st11{fill:#E8C394;}
	.st12{display:none;fill:#808080;}
	.st13{fill:#A4A9B0;}
	.st14{fill:#DB636B;}
	.st15{fill:#BCC2C9;}
	.st16{fill:none;stroke:#80848A;stroke-width:3.6301;stroke-linecap:round;stroke-miterlimit:10;}
	.st17{fill:none;stroke:#000000;stroke-miterlimit:10;}
	.st18{fill:none;stroke:#000000;stroke-width:3.4296;stroke-linecap:round;stroke-miterlimit:10;}
	.st19{fill:#FBE05A;}
	.st20{fill:#E6CB49;}
	.st21{fill:#FBB03B;}
	.st22{fill:none;stroke:#FF0000;stroke-width:5;stroke-miterlimit:10;}
	.st23{fill:none;stroke:#FF0000;stroke-width:5.6721;stroke-miterlimit:10;}
	.st24{fill:#A5BE00;}
	.st25{fill:#ED5E36;}
	.st26{fill:#944B36;}
	.st27{fill:#4885B0;}
	.st28{fill:#366D94;}
	.st29{fill:#679436;}
	.st30{fill:none;stroke:#9C6D24;stroke-width:5;stroke-linecap:round;stroke-linejoin:round;stroke-miterlimit:10;}
	.st31{fill:#808080;stroke:#808080;stroke-width:4;stroke-miterlimit:10;}
	.st32{fill:none;stroke:#C98D2F;stroke-width:5;stroke-linecap:round;stroke-linejoin:round;stroke-miterlimit:10;}
	.st33{fill:#808080;}
	.st34{fill:#999999;}
	.st35{opacity:0.5;fill:#8CBCDE;}
	.st36{fill:none;stroke:#4885B0;stroke-width:7;stroke-linecap:round;stroke-linejoin:round;stroke-miterlimit:10;}
	.st37{fill:none;stroke:#9C6D24;stroke-width:6.4697;stroke-linecap:round;stroke-linejoin:round;stroke-miterlimit:10;}
	.st38{fill:#808080;stroke:#808080;stroke-width:5.1757;stroke-miterlimit:10;}
	.st39{fill:none;stroke:#C98D2F;stroke-width:6.4697;stroke-linecap:round;stroke-linejoin:round;stroke-miterlimit:10;}
	.st40{fill:none;stroke:#4885B0;stroke-width:9.0575;stroke-linecap:round;stroke-linejoin:round;stroke-miterlimit:10;}
	.st41{fill:none;stroke:#D99933;stroke-width:6.4697;stroke-linecap:round;stroke-linejoin:round;stroke-miterlimit:10;}
	.st42{fill:none;stroke:#855A32;stroke-width:9;stroke-linecap:round;stroke-miterlimit:10;}
	.st43{fill:#855A32;}
	.st44{fill:none;stroke:#A6713F;stroke-width:9;stroke-linecap:round;stroke-miterlimit:10;}
	.st45{fill:#A6713F;}
	.st46{fill:none;stroke:#B87C46;stroke-width:9;stroke-linecap:round;stroke-miterlimit:10;}
	.st47{fill:#FFFFFF;}
	.st48{fill:#B87C46;}
	.st49{fill:#9FB31B;}
	.st50{fill:#BDCC62;}
	.st51{fill:#332724;}
	.st52{fill:#D59563;}
	.st53{fill:#6B9A76;}
	.st54{opacity:0.5;fill:#4885B0;}
	.st55{fill:#EBF2A9;}
	.st56{fill:#ED9077;}
	.st57{fill:#F1FFD6;}
	.st58{fill:#91B4CF;}
	.st59{fill:#C1CFDB;}
	.st60{fill:#50732A;}
	.st61{clip-path:url(#SVGID_2_);fill:#F2F2F2;}
	.st62{clip-path:url(#SVGID_2_);}
	.st63{fill:none;stroke:#E3E3E3;stroke-miterlimit:10;}
	.st64{fill:#333333;}
	.st65{fill:url(#SVGID_3_);}
	.st66{fill:#666666;}
	.st67{fill:#4D4D4D;}
	.st68{fill:none;}
	.st69{fill:#323031;}
	.st70{fill:#161616;}
	.st71{fill:#262626;}
	.st72{fill:#C48A2E;}
	.st73{display:none;fill:#FFFFFF;}
	.st74{fill:#A8B56E;}
	.st75{fill:#B8525A;}
	.st76{fill:#89A325;}
	.st77{fill:#434141;}
	.st78{fill:#292828;}
	.st79{fill:#B2BF7B;}
	.st80{fill:#7F5E35;}
	.st81{fill:#EDC99E;}
	.st82{fill:#CEA678;}
	.st83{fill:#E0B889;}
	.st84{fill:#A37844;}
	.st85{fill:#D1AD7F;}
	.st86{fill:#A0D0D9;}
	.st87{fill:#4A84A6;}
	.st88{fill:#4F8DB0;}
	.st89{fill:#ADDFE9;}
	.st90{fill:#5597BD;}
	.st91{fill:#757575;}
	.st92{fill:#525252;}
	.st93{fill:none;stroke:#333333;stroke-width:2;stroke-miterlimit:10;}
	.st94{fill:none;stroke:#262626;stroke-width:2;stroke-miterlimit:10;}
	.st95{fill:#989DA3;}
	.st96{fill:url(#SVGID_4_);}
	.st97{fill:#B3B3B3;}
	.st98{fill:#CCCCCC;}
	.st99{fill:none;stroke:#4D4D4D;stroke-width:2;stroke-miterlimit:10;}
	.st100{fill:none;stroke:#37323E;stroke-width:6;stroke-miterlimit:10;}
	.st101{fill:#DE9E36;}
	.st102{fill:#BFBDC1;}
	.st103{fill:#6D6A75;}
	.st104{fill:#37323E;}
	.st105{fill:#DEB841;}
	.st106{fill:#996D25;}
	.st107{fill:#C4861E;}
	.st108{fill:#E39922;}
	.st109{fill:none;stroke:#FFFFFF;stroke-width:10.6511;stroke-miterlimit:10;}
	.st110{fill:none;stroke:#FFFFFF;stroke-width:5.4942;stroke-linecap:round;stroke-miterlimit:10;}
	.st111{fill:none;stroke:#FFFFFF;stroke-width:9.2497;stroke-linecap:round;stroke-miterlimit:10;}
	.st112{fill:none;stroke:#FFFFFF;stroke-width:8.9934;stroke-miterlimit:10;}
</style>
<rect x="350" y="86" class="st73" width="256.2" height="514"/>
<polyline class="st86" points="350.2,546 566.1,474 566.1,425.6 515.4,319 516.8,273.8 474.6,192.2 350.2,154 349.8,154 
	225.4,192.2 183.2,273.8 184.6,319 133.9,425.6 133.9,474 349.8,546 "/>
<circle class="st71" cx="191.4" cy="313.7" r="30"/>
<polygon class="st87" points="350.2,449.1 133.9,425.6 133.9,474 349.8,546 565.6,474 565.6,425.6 "/>
<circle class="st71" cx="508.6" cy="313.7" r="30"/>
<polygon class="st88" points="225.2,364.7 174.4,420.9 217.3,425.6 "/>
<polygon class="st71" points="242.8,391.5 225.2,426.5 242.1,428.3 "/>
<polygon class="st71" points="264.6,404.7 254.2,429.5 267.3,431.1 "/>
<polygon class="st27" points="474.8,364.7 525.6,420.9 482.7,425.6 "/>
<polygon class="st71" points="457.2,391.5 474.8,426.5 457.9,428.3 "/>
<polygon class="st71" points="435.4,404.7 445.8,429.5 432.7,431.1 "/>
<polygon class="st89" points="566.1,425.6 566.1,474 350.2,546 349.8,546 350,545.9 350,154 350.2,154 474.6,192.2 516.8,273.8 
	516.4,284.7 515.4,319 524.9,338.9 "/>
<polygon class="st90" points="565.6,425.6 565.6,474 350,545.9 350,449.1 350.2,449.1 "/>
<circle class="st64" cx="508.6" cy="313.7" r="30"/>
<polygon class="st90" points="474.8,364.7 525.6,420.9 482.7,425.6 "/>
<polygon class="st71" points="457.2,391.5 474.8,426.5 457.9,428.3 "/>
<polygon class="st71" points="435.4,404.7 445.8,429.5 432.7,431.1 "/>
<polygon class="st47" points="350,545.9 350,546 349.8,546 "/>
<polygon class="st107" points="313.7,330.6 302.1,416.8 430.5,347.1 "/>
<polygon class="st108" points="304.8,282.2 256,385.9 445.2,349.4 375.9,295 "/>
</svg>
