<?xml version="1.0" encoding="utf-8"?>
<!-- Generator: Adobe Illustrator 21.1.0, SVG Export Plug-In . SVG Version: 6.00 Build 0)  -->
<svg version="1.1" id="Layer_1" xmlns="http://www.w3.org/2000/svg" xmlns:xlink="http://www.w3.org/1999/xlink" x="0px" y="0px"
	 width="700px" height="700px" viewBox="0 0 700 700" style="enable-background:new 0 0 700 700;" xml:space="preserve">
<style type="text/css">
	.st0{fill:#EDE488;}
	.st1{fill:#D9E021;}
	.st2{fill:#8CC63F;}
	.st3{fill:#93AD2D;}
	.st4{opacity:0.5;fill:#808080;}
	.st5{fill:#E3BF91;}
	.st6{fill:#FFDCB2;}
	.st7{fill:#332617;}
	.st8{fill:#A67D4A;}
	.st9{fill:#B58851;}
	.st10{fill:#916D41;}
	.st11{fill:#E8C394;}
	.st12{display:none;fill:#808080;}
	.st13{fill:#A4A9B0;}
	.st14{fill:#DB636B;}
	.st15{fill:#BCC2C9;}
	.st16{fill:none;stroke:#80848A;stroke-width:3.6301;stroke-linecap:round;stroke-miterlimit:10;}
	.st17{fill:none;stroke:#000000;stroke-miterlimit:10;}
	.st18{fill:none;stroke:#000000;stroke-width:3.4296;stroke-linecap:round;stroke-miterlimit:10;}
	.st19{fill:#FBE05A;}
	.st20{fill:#E6CB49;}
	.st21{fill:#FBB03B;}
	.st22{fill:none;stroke:#FF0000;stroke-width:5;stroke-miterlimit:10;}
	.st23{fill:none;stroke:#FF0000;stroke-width:5.6721;stroke-miterlimit:10;}
	.st24{fill:#A5BE00;}
	.st25{fill:#ED5E36;}
	.st26{fill:#944B36;}
	.st27{fill:#4885B0;}
	.st28{fill:#366D94;}
	.st29{fill:#679436;}
	.st30{fill:none;stroke:#9C6D24;stroke-width:5;stroke-linecap:round;stroke-linejoin:round;stroke-miterlimit:10;}
	.st31{fill:#808080;stroke:#808080;stroke-width:4;stroke-miterlimit:10;}
	.st32{fill:none;stroke:#C98D2F;stroke-width:5;stroke-linecap:round;stroke-linejoin:round;stroke-miterlimit:10;}
	.st33{fill:#808080;}
	.st34{fill:#999999;}
	.st35{opacity:0.5;fill:#8CBCDE;}
	.st36{fill:none;stroke:#4885B0;stroke-width:7;stroke-linecap:round;stroke-linejoin:round;stroke-miterlimit:10;}
	.st37{fill:none;stroke:#9C6D24;stroke-width:6.4697;stroke-linecap:round;stroke-linejoin:round;stroke-miterlimit:10;}
	.st38{fill:#808080;stroke:#808080;stroke-width:5.1757;stroke-miterlimit:10;}
	.st39{fill:none;stroke:#C98D2F;stroke-width:6.4697;stroke-linecap:round;stroke-linejoin:round;stroke-miterlimit:10;}
	.st40{fill:none;stroke:#4885B0;stroke-width:9.0575;stroke-linecap:round;stroke-linejoin:round;stroke-miterlimit:10;}
	.st41{fill:none;stroke:#D99933;stroke-width:6.4697;stroke-linecap:round;stroke-linejoin:round;stroke-miterlimit:10;}
	.st42{fill:none;stroke:#855A32;stroke-width:9;stroke-linecap:round;stroke-miterlimit:10;}
	.st43{fill:#855A32;}
	.st44{fill:none;stroke:#A6713F;stroke-width:9;stroke-linecap:round;stroke-miterlimit:10;}
	.st45{fill:#A6713F;}
	.st46{fill:none;stroke:#B87C46;stroke-width:9;stroke-linecap:round;stroke-miterlimit:10;}
	.st47{fill:#FFFFFF;}
	.st48{fill:#B87C46;}
	.st49{fill:#9FB31B;}
	.st50{fill:#BDCC62;}
	.st51{fill:#332724;}
	.st52{fill:#D59563;}
	.st53{fill:#6B9A76;}
	.st54{opacity:0.5;fill:#4885B0;}
	.st55{fill:#EBF2A9;}
	.st56{fill:#ED9077;}
	.st57{fill:#F1FFD6;}
	.st58{fill:#91B4CF;}
	.st59{fill:#C1CFDB;}
	.st60{fill:#50732A;}
	.st61{clip-path:url(#SVGID_2_);fill:#F2F2F2;}
	.st62{clip-path:url(#SVGID_2_);}
	.st63{fill:none;stroke:#E3E3E3;stroke-miterlimit:10;}
	.st64{fill:#333333;}
	.st65{fill:url(#SVGID_3_);}
	.st66{fill:#666666;}
	.st67{fill:#4D4D4D;}
	.st68{fill:none;}
	.st69{fill:#323031;}
	.st70{fill:#161616;}
	.st71{fill:#262626;}
	.st72{fill:#C48A2E;}
	.st73{display:none;fill:#FFFFFF;}
	.st74{fill:#A8B56E;}
	.st75{fill:#B8525A;}
	.st76{fill:#89A325;}
	.st77{fill:#434141;}
	.st78{fill:#292828;}
	.st79{fill:#B2BF7B;}
	.st80{fill:#7F5E35;}
	.st81{fill:#EDC99E;}
	.st82{fill:#CEA678;}
	.st83{fill:#E0B889;}
	.st84{fill:#A37844;}
	.st85{fill:#D1AD7F;}
	.st86{fill:#A0D0D9;}
	.st87{fill:#4A84A6;}
	.st88{fill:#4F8DB0;}
	.st89{fill:#ADDFE9;}
	.st90{fill:#5597BD;}
	.st91{fill:#757575;}
	.st92{fill:#525252;}
	.st93{fill:none;stroke:#333333;stroke-width:2;stroke-miterlimit:10;}
	.st94{fill:none;stroke:#262626;stroke-width:2;stroke-miterlimit:10;}
	.st95{fill:#989DA3;}
	.st96{fill:url(#SVGID_4_);}
	.st97{fill:#B3B3B3;}
	.st98{fill:#CCCCCC;}
	.st99{fill:none;stroke:#4D4D4D;stroke-width:2;stroke-miterlimit:10;}
	.st100{fill:none;stroke:#37323E;stroke-width:6;stroke-miterlimit:10;}
	.st101{fill:#DE9E36;}
	.st102{fill:#BFBDC1;}
	.st103{fill:#6D6A75;}
	.st104{fill:#37323E;}
	.st105{fill:#DEB841;}
	.st106{fill:#996D25;}
	.st107{fill:#C4861E;}
	.st108{fill:#E39922;}
	.st109{fill:none;stroke:#FFFFFF;stroke-width:10.6511;stroke-miterlimit:10;}
	.st110{fill:none;stroke:#FFFFFF;stroke-width:5.4942;stroke-linecap:round;stroke-miterlimit:10;}
	.st111{fill:none;stroke:#FFFFFF;stroke-width:9.2497;stroke-linecap:round;stroke-miterlimit:10;}
	.st112{fill:none;stroke:#FFFFFF;stroke-width:8.9934;stroke-miterlimit:10;}
</style>
<g>
	<g>
		<g>
			<polygon class="st13" points="244.1,277.5 221.9,173.7 152.4,154.2 72.9,195 68.4,280.3 200.9,326.4 248.4,329.8 			"/>
			<polygon class="st13" points="350,545.8 503.2,503.7 531.8,426.4 512.3,380.9 499.1,326.4 455.9,277.5 350,249.8 244.1,277.5 
				200.9,326.4 187.7,380.9 168.2,426.4 196.8,503.7 			"/>
			<polygon class="st13" points="455.9,277.5 478.1,173.7 547.6,154.2 627.1,195 631.6,280.3 499.1,326.4 451.6,329.8 			"/>
			<polygon class="st14" points="209.5,316.6 96.4,267.2 88.4,218.8 159.9,175.5 203.2,189.2 235,287.9 			"/>
			<polygon class="st14" points="490.5,316.6 603.6,267.2 611.6,218.8 540.1,175.5 496.8,189.2 465,287.9 			"/>
		</g>
		<polygon class="st95" points="244.1,277.5 221.9,173.7 152.4,154.2 72.9,195 68.4,280.3 200.9,326.4 248.4,329.8 		"/>
		<polygon class="st95" points="350,249.8 350,545.8 196.8,503.7 168.2,426.4 187.7,380.9 200.9,326.4 209.5,316.6 235,287.9 
			235,287.8 244.1,277.5 		"/>
		<polygon class="st75" points="209.5,316.6 96.4,267.2 88.4,218.8 159.9,175.5 203.2,189.2 235,287.9 		"/>
		<g>
			<polygon class="st75" points="350,498.9 350,460.8 317.8,460.8 			"/>
			<polygon class="st14" points="382.2,460.8 350,460.8 350,498.9 			"/>
		</g>
		<g>
			<circle class="st71" cx="248.2" cy="408.4" r="17.9"/>
			<circle class="st64" cx="451.8" cy="408.4" r="17.9"/>
		</g>
	</g>
	<line class="st93" x1="400.1" y1="460.8" x2="508.6" y2="460.8"/>
	<line class="st93" x1="400.1" y1="475.4" x2="478.6" y2="475.4"/>
	<line class="st93" x1="400.1" y1="490" x2="458.6" y2="490"/>
	<line class="st94" x1="299.9" y1="460.8" x2="191.4" y2="460.8"/>
	<line class="st94" x1="299.9" y1="475.4" x2="221.4" y2="475.4"/>
	<line class="st94" x1="299.9" y1="490" x2="241.4" y2="490"/>
</g>
</svg>
