<?xml version="1.0" encoding="utf-8"?>
<!-- Generator: Adobe Illustrator 21.1.0, SVG Export Plug-In . SVG Version: 6.00 Build 0)  -->
<svg version="1.1" id="Layer_1" xmlns="http://www.w3.org/2000/svg" xmlns:xlink="http://www.w3.org/1999/xlink" x="0px" y="0px"
	 width="700px" height="700px" viewBox="0 0 700 700" style="enable-background:new 0 0 700 700;" xml:space="preserve">
<style type="text/css">
	.st0{fill:#EDE488;}
	.st1{fill:#D9E021;}
	.st2{fill:#8CC63F;}
	.st3{fill:#93AD2D;}
	.st4{opacity:0.5;fill:#808080;}
	.st5{fill:#E3BF91;}
	.st6{fill:#FFDCB2;}
	.st7{fill:#332617;}
	.st8{fill:#A67D4A;}
	.st9{fill:#B58851;}
	.st10{fill:#916D41;}
	.st11{fill:#E8C394;}
	.st12{display:none;fill:#808080;}
	.st13{fill:#A4A9B0;}
	.st14{fill:#DB636B;}
	.st15{fill:#BCC2C9;}
	.st16{fill:none;stroke:#80848A;stroke-width:3.6301;stroke-linecap:round;stroke-miterlimit:10;}
	.st17{fill:none;stroke:#000000;stroke-miterlimit:10;}
	.st18{fill:none;stroke:#000000;stroke-width:3.4296;stroke-linecap:round;stroke-miterlimit:10;}
	.st19{fill:#FBE05A;}
	.st20{fill:#E6CB49;}
	.st21{fill:#FBB03B;}
	.st22{fill:none;stroke:#FF0000;stroke-width:5;stroke-miterlimit:10;}
	.st23{fill:none;stroke:#FF0000;stroke-width:5.6721;stroke-miterlimit:10;}
	.st24{fill:#A5BE00;}
	.st25{fill:#ED5E36;}
	.st26{fill:#944B36;}
	.st27{fill:#4885B0;}
	.st28{fill:#366D94;}
	.st29{fill:#679436;}
	.st30{fill:none;stroke:#9C6D24;stroke-width:5;stroke-linecap:round;stroke-linejoin:round;stroke-miterlimit:10;}
	.st31{fill:#808080;stroke:#808080;stroke-width:4;stroke-miterlimit:10;}
	.st32{fill:none;stroke:#C98D2F;stroke-width:5;stroke-linecap:round;stroke-linejoin:round;stroke-miterlimit:10;}
	.st33{fill:#808080;}
	.st34{fill:#999999;}
	.st35{opacity:0.5;fill:#8CBCDE;}
	.st36{fill:none;stroke:#4885B0;stroke-width:7;stroke-linecap:round;stroke-linejoin:round;stroke-miterlimit:10;}
	.st37{fill:none;stroke:#9C6D24;stroke-width:6.4697;stroke-linecap:round;stroke-linejoin:round;stroke-miterlimit:10;}
	.st38{fill:#808080;stroke:#808080;stroke-width:5.1757;stroke-miterlimit:10;}
	.st39{fill:none;stroke:#C98D2F;stroke-width:6.4697;stroke-linecap:round;stroke-linejoin:round;stroke-miterlimit:10;}
	.st40{fill:none;stroke:#4885B0;stroke-width:9.0575;stroke-linecap:round;stroke-linejoin:round;stroke-miterlimit:10;}
	.st41{fill:none;stroke:#D99933;stroke-width:6.4697;stroke-linecap:round;stroke-linejoin:round;stroke-miterlimit:10;}
	.st42{fill:none;stroke:#855A32;stroke-width:9;stroke-linecap:round;stroke-miterlimit:10;}
	.st43{fill:#855A32;}
	.st44{fill:none;stroke:#A6713F;stroke-width:9;stroke-linecap:round;stroke-miterlimit:10;}
	.st45{fill:#A6713F;}
	.st46{fill:none;stroke:#B87C46;stroke-width:9;stroke-linecap:round;stroke-miterlimit:10;}
	.st47{fill:#FFFFFF;}
	.st48{fill:#B87C46;}
	.st49{fill:#9FB31B;}
	.st50{fill:#BDCC62;}
	.st51{fill:#332724;}
	.st52{fill:#D59563;}
	.st53{fill:#6B9A76;}
	.st54{opacity:0.5;fill:#4885B0;}
	.st55{fill:#EBF2A9;}
	.st56{fill:#ED9077;}
	.st57{fill:#F1FFD6;}
	.st58{fill:#91B4CF;}
	.st59{fill:#C1CFDB;}
	.st60{fill:#50732A;}
	.st61{clip-path:url(#SVGID_2_);fill:#F2F2F2;}
	.st62{clip-path:url(#SVGID_2_);}
	.st63{fill:none;stroke:#E3E3E3;stroke-miterlimit:10;}
	.st64{fill:#333333;}
	.st65{fill:url(#SVGID_3_);}
	.st66{fill:#666666;}
	.st67{fill:#4D4D4D;}
	.st68{fill:none;}
	.st69{fill:#323031;}
	.st70{fill:#161616;}
	.st71{fill:#262626;}
	.st72{fill:#C48A2E;}
	.st73{display:none;fill:#FFFFFF;}
	.st74{fill:#A8B56E;}
	.st75{fill:#B8525A;}
	.st76{fill:#89A325;}
	.st77{fill:#434141;}
	.st78{fill:#292828;}
	.st79{fill:#B2BF7B;}
	.st80{fill:#7F5E35;}
	.st81{fill:#EDC99E;}
	.st82{fill:#CEA678;}
	.st83{fill:#E0B889;}
	.st84{fill:#A37844;}
	.st85{fill:#D1AD7F;}
	.st86{fill:#A0D0D9;}
	.st87{fill:#4A84A6;}
	.st88{fill:#4F8DB0;}
	.st89{fill:#ADDFE9;}
	.st90{fill:#5597BD;}
	.st91{fill:#757575;}
	.st92{fill:#525252;}
	.st93{fill:none;stroke:#333333;stroke-width:2;stroke-miterlimit:10;}
	.st94{fill:none;stroke:#262626;stroke-width:2;stroke-miterlimit:10;}
	.st95{fill:#989DA3;}
	.st96{fill:url(#SVGID_4_);}
	.st97{fill:#B3B3B3;}
	.st98{fill:#CCCCCC;}
	.st99{fill:none;stroke:#4D4D4D;stroke-width:2;stroke-miterlimit:10;}
	.st100{fill:none;stroke:#37323E;stroke-width:6;stroke-miterlimit:10;}
	.st101{fill:#DE9E36;}
	.st102{fill:#BFBDC1;}
	.st103{fill:#6D6A75;}
	.st104{fill:#37323E;}
	.st105{fill:#DEB841;}
	.st106{fill:#996D25;}
	.st107{fill:#C4861E;}
	.st108{fill:#E39922;}
	.st109{fill:none;stroke:#FFFFFF;stroke-width:10.6511;stroke-miterlimit:10;}
	.st110{fill:none;stroke:#FFFFFF;stroke-width:5.4942;stroke-linecap:round;stroke-miterlimit:10;}
	.st111{fill:none;stroke:#FFFFFF;stroke-width:9.2497;stroke-linecap:round;stroke-miterlimit:10;}
	.st112{fill:none;stroke:#FFFFFF;stroke-width:8.9934;stroke-miterlimit:10;}
</style>
<g>
	<polygon class="st74" points="108.9,457.4 349.8,523.2 591.1,457.4 591.1,385.3 108.9,385.3 	"/>
	<circle class="st75" cx="350" cy="400.3" r="43.3"/>
	<polygon class="st76" points="569.1,314.3 433.6,200.8 266.1,200.8 130.9,314.3 130.9,400.3 569.1,400.3 	"/>
</g>
<path class="st77" d="M193.9,200.8c-25.3,0-45.8,20.5-45.8,45.8c0,8.6,2.4,16.7,6.5,23.6l69.3-58.2
	C215.9,205,205.4,200.8,193.9,200.8z"/>
<path class="st78" d="M193.9,292.4c25.3,0,45.8-20.5,45.8-45.8c0-13.8-6.1-26.2-15.8-34.6l-69.3,58.2
	C162.6,283.5,177.2,292.4,193.9,292.4z"/>
<path class="st67" d="M506.1,200.8c25.3,0,45.8,20.5,45.8,45.8c0,8.6-2.4,16.7-6.5,23.6L476.1,212
	C484.1,205,494.6,200.8,506.1,200.8z"/>
<path class="st64" d="M506.1,292.4c-25.3,0-45.8-20.5-45.8-45.8c0-13.8,6.1-26.2,15.8-34.6l69.3,58.2
	C537.4,283.5,522.8,292.4,506.1,292.4z"/>
<polygon class="st79" points="591.1,385.3 591.1,457.4 349.8,523.2 349.8,385.3 "/>
<path class="st14" d="M393.3,400.3c0,23.9-19.4,43.3-43.3,43.3h-0.2V357h0.2c18.7,0,34.6,11.8,40.7,28.3
	C392.4,390,393.3,395,393.3,400.3z"/>
<polygon class="st3" points="569.1,314.3 569.1,400.3 349.8,400.3 349.8,200.8 433.6,200.8 464.8,226.9 532.8,283.8 "/>
<path class="st67" d="M506.1,200.8c25.3,0,45.8,20.5,45.8,45.8c0,8.6-2.4,16.7-6.5,23.6L476.1,212
	C484.1,205,494.6,200.8,506.1,200.8z"/>
<path class="st64" d="M506.1,292.4c-25.3,0-45.8-20.5-45.8-45.8c0-13.8,6.1-26.2,15.8-34.6l69.3,58.2
	C537.4,283.5,522.8,292.4,506.1,292.4z"/>
</svg>
