<?xml version="1.0" encoding="utf-8"?>
<!-- Generator: Adobe Illustrator 21.1.0, SVG Export Plug-In . SVG Version: 6.00 Build 0)  -->
<svg version="1.1" id="Layer_1" xmlns="http://www.w3.org/2000/svg" xmlns:xlink="http://www.w3.org/1999/xlink" x="0px" y="0px"
	 width="300px" height="224px" viewBox="0 0 300 224" style="enable-background:new 0 0 300 224;" xml:space="preserve">
<style type="text/css">
	.st0{fill:#3D3B30;}
	.st1{fill:#F92671;}
	.st2{fill:#66D9EF;}
	.st3{fill:#A6E22E;}
	.st4{fill:#FFFFFF;}
	.st5{fill:#FD9720;}
	.st6{fill:#AF81FF;}
	.st7{fill:#E5DB73;}
	.st8{fill:#E6E6E6;}
	.st9{fill:#B5B5B5;}
	.st10{fill:none;stroke:#FFFFFF;stroke-width:2.4953;stroke-miterlimit:10;}
	.st11{fill:none;stroke:#F92671;stroke-width:2.4953;stroke-miterlimit:10;}
	.st12{fill:none;stroke:#66D9EF;stroke-width:2.4953;stroke-miterlimit:10;}
	.st13{fill:none;stroke:#A6E22E;stroke-width:2.4953;stroke-miterlimit:10;}
	.st14{fill:none;stroke:#E5DB73;stroke-width:2.4953;stroke-miterlimit:10;}
	.st15{fill:none;stroke:#FD9720;stroke-width:2.4953;stroke-miterlimit:10;}
	.st16{fill:none;stroke:#AF81FF;stroke-width:2.4953;stroke-miterlimit:10;}
	.st17{fill:#FFC2D5;}
	.st18{fill:none;stroke:#F97DA8;stroke-width:2.5878;stroke-miterlimit:10;}
	.st19{fill:#C9C165;}
	.st20{fill:#53B6C7;}
	.st21{fill:none;stroke:#53B6C7;stroke-width:2.9644;stroke-miterlimit:10;}
	.st22{fill:none;stroke:#C9C165;stroke-width:2.1943;stroke-miterlimit:10;}
	.st23{fill:#67C8DB;}
	.st24{fill:#51AEBF;}
	.st25{fill:none;stroke:#FFFFFF;stroke-width:3;stroke-miterlimit:10;}
	.st26{fill:none;stroke:#F92671;stroke-width:3;stroke-miterlimit:10;}
	.st27{fill:none;stroke:#66D9EF;stroke-width:3;stroke-miterlimit:10;}
	.st28{fill:none;stroke:#A6E22E;stroke-width:3;stroke-miterlimit:10;}
	.st29{fill:none;stroke:#E5DB73;stroke-width:3;stroke-miterlimit:10;}
	.st30{fill:none;stroke:#FD9720;stroke-width:3;stroke-miterlimit:10;}
	.st31{fill:none;stroke:#AF81FF;stroke-width:3;stroke-miterlimit:10;}
	.st32{fill:#F9AEC8;}
	.st33{fill:none;stroke:#F97DA8;stroke-width:4.0635;stroke-miterlimit:10;}
	.st34{fill:none;stroke:#53B6C7;stroke-width:3.2508;stroke-miterlimit:10;}
	.st35{fill:none;stroke:#C9C165;stroke-width:3.2508;stroke-miterlimit:10;}
</style>
<rect x="23.2" y="38" class="st0" width="253.7" height="151.4"/>
<g>
	<g>
		<rect x="23.2" y="23" class="st9" width="253.7" height="15"/>
		<rect x="23.2" y="189.4" class="st9" width="253.7" height="11.6"/>
		<circle class="st1" cx="32.3" cy="30.5" r="3.3"/>
		<circle class="st7" cx="41.5" cy="30.5" r="3.3"/>
		<circle class="st3" cx="50.6" cy="30.5" r="3.3"/>
	</g>
	<g>
		<g>
			<path class="st17" d="M152.2,170.8c11.1-0.5,24.4-6.5,26.9-18.4c0.8-3.7,0.6-7.4-0.4-10.9l0,0c11.8,11,28.9,12.7,43.8,7.2
				c7.3-2.7,14.3-7.1,19.2-13.4c5.4-6.9,6.5-15.9,5.1-24.3c-1.4-8.1-4.7-16.6-9.8-23.1c-5.1-6.5-11.8-11-19.7-12l0,0
				c-0.3-6.3-4-11.6-9.1-15.2c-6.1-4.3-14.5-6.8-22-5.8c-6.4,0.8-12,4.2-17,8.1l0,0c-5.2-12.3-24.4-12.5-34-6.2
				c-1.5,1-3,2.2-4.2,3.6c-1.5,1.7-2.7,3.5-3.5,5.6l0,0c-7.9-1.9-16.4,0.7-23.7,3.9c-16,7.1-30,22.3-31.5,40.3
				c-0.2,0.1-0.4,0.2-0.6,0.4c-10.7,6.5-19.7,19.8-13.4,32.3l0.1-0.1c-1.8,1.9-3.3,3.9-4.6,6.1c-3,5-4.6,11.4-0.7,16.4
				c0.4,0.5,0.8,0.9,1.2,1.3c4.4,4.2,10.6,3.3,16,2.1c6.5-1.5,12.6-4.1,19.1-5.3c5.6-1.1,11.8-1.9,17.4-0.2l0-0.1
				c-0.8,1.7-0.9,3.4,0.1,4.9C111.1,174.9,152.2,170.8,152.2,170.8z"/>
		</g>
		<g>
			<path class="st18" d="M127.3,154.8c-12.1-1.6-24,7.2-20.4,13.3c4.1,6.8,45.2,2.8,45.2,2.8c11.1-0.5,24.4-6.5,26.9-18.4
				c2.9-13.1-7.3-25.9-17.9-32.3c-4.7-2.8-10.9-5-16.2-2.6c-4.2,1.9-6.9,5.9-7.9,10.3"/>
			<path class="st18" d="M114.6,140.7c-7.6-4.8-14.6-9.3-23.7-10c-7.6-0.6-15.4,1-22.2,4.5c-6.1,3.2-11.4,7.9-14.9,13.8
				c-3,5-4.6,11.4-0.7,16.4c0.4,0.5,0.8,0.9,1.2,1.3c4.4,4.2,10.6,3.3,16,2.1c6.5-1.5,12.6-4.1,19.1-5.3c5.6-1.1,11.8-1.9,17.4-0.2"
				/>
			<path class="st18" d="M149.3,88.8c-3.1,0.5-16.6,4.1-23.8,13.5c-7.2,9.3-18,24.5-33.8,28.6"/>
			<path class="st18" d="M98.1,87.2c2.6,2.6,3,7.2,1.9,10.5c-1.2,3.7-4.9,5.7-8.4,6.7c-6.8,1.8-13.6,2.5-19.8,6.3
				c-10.7,6.5-19.4,20.6-13.1,33"/>
			<path class="st18" d="M109,94.5c0,0-7.6,0.4-9,3.3"/>
			<path class="st18" d="M118.3,82.1c0,0,10.9,5.7,9.1,18.1"/>
			<path class="st18" d="M164.9,100.2c0,0,1,11.8-8.8,17.8"/>
			<path class="st18" d="M178.4,141.2c11.8,11,29.3,13.1,44.1,7.5c7.3-2.7,14.3-7.1,19.2-13.4c5.4-6.9,6.5-15.9,5.1-24.3
				c-1.4-8.1-4.7-16.6-9.8-23.1c-6.2-8-14.9-13-25.3-12.2c-4.1,0.3-9.6,3.2-9.5,7.8"/>
			<path class="st18" d="M146.2,75.9c7.6,0.5,13.4-4.2,18.7-9c5.9-5.5,13-10.8,21.3-11.9c7.5-1,15.9,1.5,22,5.8
				c5,3.6,8.7,8.9,9.1,15.2"/>
			<path class="st18" d="M127.6,66c0.8-2.1,1.9-3.9,3.5-5.6c1.2-1.4,2.7-2.5,4.2-3.6c9.6-6.3,28.7-6.6,34,5.7"/>
			<path class="st18" d="M72.4,110.3C73.9,92.3,87.9,77,103.9,70c8.5-3.8,19-6.8,27.8-2.4"/>
		</g>
		<g>
			<g>
				<path class="st7" d="M200.1,143.4l-0.2-1.7c0-0.1-1.4-10.9-3.2-15.4c-0.9-2.3-4.8-8.9-10.6-17.9c-1.2-1.5-2.2-3.1-3.1-4.8
					l-0.2-0.4v0c-1.3-2.5-2.3-5.1-3-7.7c-0.8-2.9-1.1-6-1.1-9c0-9.7,3.8-18.8,10.6-25.6c6.9-6.8,16-10.6,25.6-10.6
					s18.8,3.8,25.6,10.6c6.9,6.9,10.6,16,10.6,25.6c0,3-0.4,6.1-1.1,9c-0.7,2.7-1.7,5.3-3,7.7v0l-0.2,0.4c-0.9,1.7-1.9,3.3-3.1,4.8
					c-5.8,9.1-9.7,15.6-10.6,17.9c-1.8,4.5-3.2,15.3-3.2,15.4l-0.2,1.7H200.1z"/>
				<path class="st19" d="M214.9,52c9.5,0,18,3.8,24.2,10c6.2,6.2,10,14.8,10,24.2c0,2.9-0.4,5.8-1.1,8.5c-0.7,2.7-1.7,5.3-3,7.7
					c0,0,0,0,0,0c-0.9,1.6-1.9,3.2-3,4.6c-3.7,5.7-9.5,15-10.9,18.3c-1.9,4.8-3.3,15.9-3.3,15.9h-26.1c0,0-1.4-11.1-3.3-15.9
					c-1.3-3.3-7.2-12.7-10.9-18.3c-1.1-1.4-2.1-3-3-4.6c0,0,0,0,0,0c-1.3-2.4-2.3-5-3-7.7c-0.7-2.7-1.1-5.6-1.1-8.5
					c0-9.5,3.8-18,10-24.2C196.9,55.8,205.5,52,214.9,52 M214.9,48c-10.2,0-19.8,4-27,11.2c-7.2,7.2-11.2,16.8-11.2,27
					c0,3.2,0.4,6.4,1.2,9.5c0.7,2.7,1.7,5.3,2.9,7.7v0l0.5,0.9c0.9,1.7,2,3.4,3.2,5c5.7,8.8,9.6,15.3,10.4,17.5
					c1.4,3.5,2.7,12,3,14.9l0.4,3.5h3.5h26.1h3.5l0.4-3.5c0.4-3,1.6-11.4,3-14.9c0.9-2.2,4.8-8.7,10.4-17.5c1.2-1.6,2.3-3.3,3.2-5
					l0.5-0.9v0c1.2-2.5,2.2-5.1,2.9-7.7c0.8-3.1,1.2-6.3,1.2-9.5c0-10.2-4-19.8-11.2-27C234.7,52,225.1,48,214.9,48L214.9,48z"/>
			</g>
			<g>
				<rect x="199.9" y="143.1" class="st2" width="30" height="21"/>
				<path class="st20" d="M227.9,145.1v17h-26.1v-17H227.9 M231.9,141.2h-4h-26.1h-4v4v17v4h4h26.1h4v-4v-17V141.2L231.9,141.2z"/>
			</g>
			<line class="st21" x1="201.9" y1="148.7" x2="227.9" y2="148.7"/>
			<line class="st21" x1="201.9" y1="153.8" x2="227.9" y2="153.8"/>
			<line class="st21" x1="201.9" y1="158.8" x2="227.9" y2="158.8"/>
			<g>
				<rect x="208.7" y="165.1" class="st20" width="12.4" height="5.6"/>
				<path class="st20" d="M220.1,166.1v3.6h-10.4v-3.6H220.1 M222.1,164.1h-2h-10.4h-2v2v3.6v2h2h10.4h2v-2v-3.6V164.1L222.1,164.1z
					"/>
			</g>
			<line class="st22" x1="214.9" y1="141.4" x2="214.9" y2="101.1"/>
			<polyline class="st22" points="220.1,108.5 214.9,118.8 209.7,108.5 			"/>
		</g>
	</g>
</g>
</svg>
