<?xml version="1.0" encoding="utf-8"?>
<!-- Generator: Adobe Illustrator 21.1.0, SVG Export Plug-In . SVG Version: 6.00 Build 0)  -->
<svg version="1.1" id="Layer_1" xmlns="http://www.w3.org/2000/svg" xmlns:xlink="http://www.w3.org/1999/xlink" x="0px" y="0px"
	 width="500px" height="500px" viewBox="0 0 500 500" style="enable-background:new 0 0 500 500;" xml:space="preserve">
<style type="text/css">
	.st0{fill:#FFFFFF;stroke:#FFFFFF;stroke-width:5;stroke-linecap:round;stroke-linejoin:round;stroke-miterlimit:10;}
	.st1{fill:none;stroke:#FFFFFF;stroke-width:8;stroke-linecap:round;stroke-linejoin:round;stroke-miterlimit:10;}
	.st2{fill:#FFFFFF;stroke:#FFFFFF;stroke-width:8;stroke-miterlimit:10;}
	.st3{fill:none;stroke:#FFFFFF;stroke-width:8;stroke-miterlimit:10;}
	.st4{fill:none;stroke:#FFFFFF;stroke-width:8;stroke-linejoin:round;stroke-miterlimit:10;}
	.st5{fill:#FFFFFF;}
	.st6{fill:none;stroke:#FFFFFF;stroke-width:6.9725;stroke-linecap:round;stroke-linejoin:round;stroke-miterlimit:10;}
	.st7{fill:none;stroke:#FFFFFF;stroke-width:8.1672;stroke-linecap:round;stroke-linejoin:round;stroke-miterlimit:10;}
	.st8{fill:#FFFFFF;stroke:#FFFFFF;stroke-width:8;stroke-linecap:round;stroke-linejoin:round;stroke-miterlimit:10;}
	.st9{fill:none;stroke:#FFFFFF;stroke-width:6.4444;stroke-linecap:round;stroke-linejoin:round;stroke-miterlimit:10;}
	.st10{fill:#FF0000;stroke:#FFFFFF;stroke-width:8;stroke-linecap:round;stroke-linejoin:round;stroke-miterlimit:10;}
	.st11{fill:#EBCA52;}
	.st12{fill:none;stroke:#000000;stroke-width:8;stroke-linecap:round;stroke-linejoin:round;stroke-miterlimit:10;}
	.st13{fill:none;}
	.st14{fill:#3D3B30;}
	.st15{fill:#363946;stroke:#FFFFFF;stroke-width:5;stroke-miterlimit:10;}
	.st16{fill:none;stroke:#FFFFFF;stroke-width:5;stroke-linecap:round;stroke-linejoin:round;stroke-miterlimit:10;}
</style>
<g>
	<g>
		<path class="st14" d="M250,431.1c-1.5,0-2.7-1-3-2.4c-7-31.8-19.9-42.6-23.2-44.9c-22,4-30.9,24.2-31,24.4
			c-0.5,1.1-1.6,1.9-2.8,1.9c0,0,0,0-0.1,0c-1.3,0-2.4-0.8-2.8-2c-15.7-42-34.1-52.6-40.2-55.1c-1.7,4.4-1.5,12.7-1,17.6
			c0.1,1.3-0.5,2.5-1.7,3.1c-1.2,0.6-2.6,0.4-3.5-0.5c-8.7-8-17.2-22.5-25.3-43c-3.6-9.1-6.2-17.3-7.8-22.5l-3.2,4.1
			c-0.7,0.9-1.9,1.3-3,1.1c-1.1-0.2-2.1-1.1-2.4-2.2c-4.4-15.5-2.8-32.3-1.4-41.5l-7.2,4.4c-1.1,0.7-2.6,0.6-3.6-0.3
			c-1-0.8-1.4-2.2-0.9-3.5c2.8-7.3,6.1-14.1,8.8-19.1l-2.3,1c-1.2,0.5-2.6,0.2-3.5-0.7c-0.9-1-1.1-2.4-0.5-3.6
			c14.4-27.7,16.4-77.3,16.6-86.1c-25.2-24.6-28.8-44.6-27.3-57.1c2.3-19,19.1-34.5,38.3-35.3c17.3-0.8,34.5,10.1,43.9,27.6
			c0.7,1.2,4.7,9.7,6.8,15.1C211,99.6,248.2,99.9,250,100c1.8,0,39-0.4,83.3,11.7c2.1-5.4,6.1-13.9,6.8-15.1
			c9.4-17.5,26.6-28.4,43.9-27.6c19.2,0.8,36,16.3,38.3,35.3c1.5,12.5-2,32.5-27.3,57.1c0.2,8.7,2.2,58.4,16.6,86.1
			c0.6,1.2,0.4,2.6-0.5,3.6c-0.9,1-2.3,1.2-3.5,0.7l-2.3-1c2.7,5,6,11.8,8.8,19.1c0.5,1.2,0.1,2.6-0.9,3.5c-1,0.8-2.5,0.9-3.6,0.3
			l-7.2-4.4c1.5,9.2,3,26-1.4,41.5c-0.3,1.1-1.2,2-2.4,2.2c-1.1,0.2-2.3-0.2-3-1.1l-3.2-4.1c-1.6,5.2-4.2,13.4-7.8,22.5
			c-8.1,20.5-16.6,35-25.3,43c-0.9,0.9-2.3,1.1-3.5,0.5c-1.2-0.6-1.8-1.8-1.7-3.1c0.5-4.9,0.7-13.2-1-17.6
			c-6,2.4-24.5,13.1-40.2,55.1c-0.4,1.2-1.6,2-2.8,2c-1.2,0-2.4-0.7-2.9-1.9c-0.1-0.2-9.1-20.5-31-24.4C273,386,260,396.8,253,428.6
			C252.7,430,251.5,431.1,250,431.1z M224.4,377.3c0.5,0,1,0.1,1.4,0.3c0.7,0.3,14.9,8,24.1,38c9.2-30,23.5-37.7,24.1-38
			c0.6-0.3,1.2-0.4,1.9-0.3c18.2,2.8,28.6,14.8,33.5,22.3c19.9-48.8,43.5-53.4,44.5-53.5c1.1-0.2,2.3,0.3,3,1.2
			c2.7,3.6,3.5,9.9,3.6,15.1c16.2-21.1,27.2-61.7,27.4-62.2c0.3-1.1,1.2-2,2.4-2.2c1.1-0.2,2.3,0.2,3.1,1.1l3,3.7
			c3.4-19.2-1.4-39-1.4-39.3c-0.3-1.2,0.2-2.5,1.2-3.2c1-0.7,2.4-0.8,3.4-0.1l5,3c-4.5-9.9-9.2-17.4-9.2-17.5
			c-0.7-1.2-0.6-2.6,0.3-3.7c0.9-1,2.3-1.3,3.6-0.8l3.4,1.5c-5.2-12.7-9-29.3-11.5-49.6c-2.2-18.2-2.4-32.8-2.4-33
			c0-0.9,0.3-1.7,1-2.3c25.6-24.5,27.5-43.6,26.4-52.8c-1.9-16-16.2-29.2-32.4-29.9c-14.9-0.6-29.9,8.9-38.1,24.4
			c-0.8,1.6-6.3,13.3-7.2,16.7c-0.2,0.8-0.7,1.5-1.5,1.9c-0.7,0.4-1.6,0.5-2.4,0.3c-45.5-12.9-84-12.3-84.3-12.3c0,0-0.1,0-0.1,0
			c-0.4,0-38.9-0.6-84.3,12.3c-0.8,0.2-1.7,0.1-2.4-0.3c-0.7-0.4-1.2-1.1-1.5-1.9c-0.9-3.4-6.4-15.1-7.2-16.7
			c-8.3-15.4-23.2-25-38.1-24.4C100.1,75.9,85.9,89,83.9,105c-1.1,9.2,0.8,28.3,26.4,52.8c0.6,0.6,1,1.4,1,2.3
			c0,0.1-0.2,14.7-2.4,33c-2.5,20.3-6.3,36.9-11.5,49.6l3.4-1.5c1.2-0.6,2.7-0.2,3.6,0.8c0.9,1,1,2.5,0.3,3.7
			c-0.1,0.1-4.7,7.6-9.2,17.5l5-3c1.1-0.7,2.4-0.6,3.4,0.1c1,0.7,1.5,2,1.2,3.2c-0.1,0.2-4.8,20.1-1.4,39.3l3-3.7
			c0.7-0.9,1.9-1.3,3.1-1.1c1.1,0.2,2.1,1.1,2.4,2.2c0.1,0.5,11.1,41.1,27.4,62.2c0.1-5.3,0.9-11.6,3.6-15.1c0.7-0.9,1.8-1.3,3-1.2
			c1,0.2,24.6,4.7,44.5,53.5c4.9-7.5,15.4-19.5,33.5-22.3C224.1,377.4,224.3,377.3,224.4,377.3z"/>
	</g>
	<g>
		<g>
			<circle class="st14" cx="185.8" cy="207.8" r="14.2"/>
			<path class="st14" d="M185.8,225.1c-9.5,0-17.3-7.8-17.3-17.3c0-9.5,7.8-17.3,17.3-17.3c9.5,0,17.3,7.8,17.3,17.3
				C203.1,217.3,195.3,225.1,185.8,225.1z M185.8,196.7c-6.1,0-11.1,5-11.1,11.1c0,6.1,5,11.1,11.1,11.1c6.1,0,11.1-5,11.1-11.1
				C196.9,201.7,191.9,196.7,185.8,196.7z"/>
		</g>
		<g>
			<circle class="st14" cx="314.2" cy="207.8" r="14.2"/>
			<path class="st14" d="M314.2,225.1c-9.5,0-17.3-7.8-17.3-17.3c0-9.5,7.8-17.3,17.3-17.3s17.3,7.8,17.3,17.3
				C331.5,217.3,323.8,225.1,314.2,225.1z M314.2,196.7c-6.1,0-11.1,5-11.1,11.1c0,6.1,5,11.1,11.1,11.1s11.1-5,11.1-11.1
				C325.3,201.7,320.4,196.7,314.2,196.7z"/>
		</g>
	</g>
	<g>
		<path class="st14" d="M250,349.1c-26.6,0-48.3-15.7-48.3-34.9c0-11.3,5.9-30.8,14.4-47.3c6.1-12,18.7-32.1,33.9-32.1
			s27.8,20.1,33.9,32.1c8.5,16.5,14.4,35.9,14.4,47.3C298.3,333.4,276.6,349.1,250,349.1z M250,241c-8.7,0-19.1,10.5-28.4,28.7
			c-7.9,15.5-13.7,34.2-13.7,44.4c0,15.8,18.9,28.7,42.1,28.7c23.2,0,42.1-12.9,42.1-28.7c0-10.3-5.8-29-13.7-44.4
			C269.1,251.5,258.7,241,250,241z"/>
	</g>
	<g>
		<path class="st14" d="M250,307.4c10.7,0,19.4-6.1,19.4-13.6c0-8.8-9.7-32.7-19.4-32.7c-9.7,0-19.4,23.8-19.4,32.7
			C230.6,301.3,239.3,307.4,250,307.4z"/>
		<path class="st14" d="M250,310.5c-12.6,0-22.5-7.3-22.5-16.7c0-9.8,10.2-35.8,22.5-35.8s22.5,26,22.5,35.8
			C272.5,303.1,262.6,310.5,250,310.5z M250,264.2c-6.6,0-16.3,20.8-16.3,29.6c0,5.7,7.5,10.5,16.3,10.5c8.8,0,16.3-4.8,16.3-10.5
			C266.3,284.9,256.6,264.2,250,264.2z"/>
	</g>
	<g>
		<rect x="246.9" y="307.4" class="st14" width="6.2" height="38.6"/>
	</g>
</g>
</svg>
