<?xml version="1.0" encoding="utf-8"?>
<!-- Generator: Adobe Illustrator 21.1.0, SVG Export Plug-In . SVG Version: 6.00 Build 0)  -->
<svg version="1.1" id="Layer_1" xmlns="http://www.w3.org/2000/svg" xmlns:xlink="http://www.w3.org/1999/xlink" x="0px" y="0px"
	 width="500px" height="500px" viewBox="0 0 500 500" style="enable-background:new 0 0 500 500;" xml:space="preserve">
<style type="text/css">
	.st0{fill:#FFFFFF;stroke:#FFFFFF;stroke-width:5;stroke-linecap:round;stroke-linejoin:round;stroke-miterlimit:10;}
	.st1{fill:none;stroke:#FFFFFF;stroke-width:8;stroke-linecap:round;stroke-linejoin:round;stroke-miterlimit:10;}
	.st2{fill:#FFFFFF;stroke:#FFFFFF;stroke-width:8;stroke-miterlimit:10;}
	.st3{fill:none;stroke:#FFFFFF;stroke-width:8;stroke-miterlimit:10;}
	.st4{fill:none;stroke:#FFFFFF;stroke-width:8;stroke-linejoin:round;stroke-miterlimit:10;}
	.st5{fill:#FFFFFF;}
	.st6{fill:none;stroke:#FFFFFF;stroke-width:6.9725;stroke-linecap:round;stroke-linejoin:round;stroke-miterlimit:10;}
	.st7{fill:none;stroke:#FFFFFF;stroke-width:8.1672;stroke-linecap:round;stroke-linejoin:round;stroke-miterlimit:10;}
	.st8{fill:#FFFFFF;stroke:#FFFFFF;stroke-width:8;stroke-linecap:round;stroke-linejoin:round;stroke-miterlimit:10;}
	.st9{fill:none;stroke:#FFFFFF;stroke-width:6.4444;stroke-linecap:round;stroke-linejoin:round;stroke-miterlimit:10;}
	.st10{fill:#FF0000;stroke:#FFFFFF;stroke-width:8;stroke-linecap:round;stroke-linejoin:round;stroke-miterlimit:10;}
	.st11{fill:#EBCA52;}
	.st12{fill:none;stroke:#000000;stroke-width:8;stroke-linecap:round;stroke-linejoin:round;stroke-miterlimit:10;}
	.st13{fill:none;}
	.st14{fill:#3D3B30;}
	.st15{fill:#363946;stroke:#FFFFFF;stroke-width:5;stroke-miterlimit:10;}
	.st16{fill:none;stroke:#FFFFFF;stroke-width:5;stroke-linecap:round;stroke-linejoin:round;stroke-miterlimit:10;}
</style>
<g>
	<g>
		<path class="st14" d="M250,368.9c-53.8,0-104.5-5.5-142.6-15.6c-50.5-13.3-61.1-29.4-61.1-40.5c0-11.6,11.1-22.1,33.1-31.3
			c20.1-8.4,48.4-15.1,81.9-19.4l0.8,6.1c-65.5,8.5-109.6,26.4-109.6,44.5c0,12.4,20.6,25,56.4,34.5c37.6,9.9,87.7,15.4,141,15.4
			c53.3,0,103.4-5.5,141-15.4c35.9-9.5,56.4-22,56.4-34.5c0-18.1-44-36-109.6-44.5l0.8-6.1c33.4,4.3,61.7,11.1,81.9,19.4
			c22,9.1,33.1,19.6,33.1,31.3c0,11.1-10.6,27.1-61.1,40.5C354.5,363.4,303.8,368.9,250,368.9z"/>
	</g>
	<g>
		<path class="st14" d="M250,332.6c-23.9,0-46.3-2.5-63.2-6.9c-18.4-4.9-28.2-11.6-28.2-19.5v-89.9c0-17.9,14.6-32.5,32.5-32.5
			c14.5,0,26.3-11.8,26.3-26.3c0-6.3,3.5-12.9,9.7-18.1c6.4-5.3,14.5-8.2,22.8-8.2c17.9,0,32.5,11.8,32.5,26.3s11.8,26.3,26.3,26.3
			c17.9,0,32.5,14.6,32.5,32.5v89.9c0,7.9-9.7,14.6-28.2,19.5C296.3,330.2,273.9,332.6,250,332.6z M250,137.3
			c-14.6,0-26.3,11-26.3,20.1c0,17.9-14.6,32.5-32.5,32.5c-14.5,0-26.3,11.8-26.3,26.3v89.9c0,8.5,32.4,20.2,85.2,20.2
			s85.2-11.8,85.2-20.2v-89.9c0-14.5-11.8-26.3-26.3-26.3c-17.9,0-32.5-14.6-32.5-32.5C276.3,146.5,264.3,137.3,250,137.3z"/>
	</g>
	<g>
		<path class="st14" d="M250,332.6c-23.9,0-46.3-2.5-63.2-6.9c-18.4-4.9-28.2-11.6-28.2-19.5v-31.5h6.2c0,8.4,32.4,20.2,85.2,20.2
			s85.2-11.8,85.2-20.2h6.2v31.5c0,7.9-9.7,14.6-28.2,19.5C296.3,330.2,273.9,332.6,250,332.6z M164.8,284.9v21.3
			c0,8.4,32.4,20.2,85.2,20.2s85.2-11.8,85.2-20.2v-21.3c-4.7,3.6-12.1,6.7-22,9.3c-16.9,4.5-39.4,6.9-63.2,6.9s-46.3-2.5-63.2-6.9
			C176.9,291.6,169.5,288.4,164.8,284.9z"/>
	</g>
</g>
</svg>
