<?xml version="1.0" encoding="utf-8"?>
<!-- Generator: Adobe Illustrator 21.1.0, SVG Export Plug-In . SVG Version: 6.00 Build 0)  -->
<svg version="1.1" id="Layer_1" xmlns="http://www.w3.org/2000/svg" xmlns:xlink="http://www.w3.org/1999/xlink" x="0px" y="0px"
	 width="500px" height="500px" viewBox="0 0 500 500" style="enable-background:new 0 0 500 500;" xml:space="preserve">
<style type="text/css">
	.st0{fill:#FFFFFF;stroke:#FFFFFF;stroke-width:5;stroke-linecap:round;stroke-linejoin:round;stroke-miterlimit:10;}
	.st1{fill:none;stroke:#FFFFFF;stroke-width:8;stroke-linecap:round;stroke-linejoin:round;stroke-miterlimit:10;}
	.st2{fill:#FFFFFF;stroke:#FFFFFF;stroke-width:8;stroke-miterlimit:10;}
	.st3{fill:none;stroke:#FFFFFF;stroke-width:8;stroke-miterlimit:10;}
	.st4{fill:none;stroke:#FFFFFF;stroke-width:8;stroke-linejoin:round;stroke-miterlimit:10;}
	.st5{fill:#FFFFFF;}
	.st6{fill:none;stroke:#FFFFFF;stroke-width:6.9725;stroke-linecap:round;stroke-linejoin:round;stroke-miterlimit:10;}
	.st7{fill:none;stroke:#FFFFFF;stroke-width:8.1672;stroke-linecap:round;stroke-linejoin:round;stroke-miterlimit:10;}
	.st8{fill:#FFFFFF;stroke:#FFFFFF;stroke-width:8;stroke-linecap:round;stroke-linejoin:round;stroke-miterlimit:10;}
	.st9{fill:none;stroke:#FFFFFF;stroke-width:6.4444;stroke-linecap:round;stroke-linejoin:round;stroke-miterlimit:10;}
	.st10{fill:#FF0000;stroke:#FFFFFF;stroke-width:8;stroke-linecap:round;stroke-linejoin:round;stroke-miterlimit:10;}
	.st11{fill:#EBCA52;}
	.st12{fill:none;stroke:#000000;stroke-width:8;stroke-linecap:round;stroke-linejoin:round;stroke-miterlimit:10;}
	.st13{fill:none;}
	.st14{fill:#3D3B30;}
	.st15{fill:#363946;stroke:#FFFFFF;stroke-width:5;stroke-miterlimit:10;}
	.st16{fill:none;stroke:#FFFFFF;stroke-width:5;stroke-linecap:round;stroke-linejoin:round;stroke-miterlimit:10;}
</style>
<g>
	<g>
		<path class="st14" d="M242.8,428.4c-26.2,0-50.8-2-69.3-5.7c-20.8-4.1-31-9.6-31-16.6v-264c0-1.7,1.4-3.1,3.1-3.1
			c1.7,0,3.1,1.4,3.1,3.1v264c0,1.5,4.7,6.3,26,10.5c18.2,3.6,42.4,5.6,68.1,5.6c25.8,0,50-2,68.2-5.6c21.3-4.2,26-9,26-10.5v-264
			c0-1.7,1.4-3.1,3.1-3.1s3.1,1.4,3.1,3.1v264c0,7.1-10.1,12.5-31,16.6C293.6,426.3,269,428.4,242.8,428.4z"/>
	</g>
	<g>
		<path class="st14" d="M242.8,164.4c-26.2,0-50.8-2-69.3-5.7c-20.8-4.1-31-9.6-31-16.6c0-6.4,8.5-11.5,25.8-15.5
			c1.7-0.4,3.3,0.7,3.7,2.3c0.4,1.7-0.7,3.3-2.3,3.7c-17.3,4-21,8.2-21,9.5c0,1.5,4.7,6.3,26,10.5c18.2,3.6,42.4,5.6,68.1,5.6
			c51.7,0,89-7.9,93.8-15.3c0.3-0.5,0.3-0.7,0.3-0.8c0-1.3-3.8-5.5-21-9.5c-1.7-0.4-2.7-2-2.3-3.7c0.4-1.7,2.1-2.7,3.7-2.3
			c17.4,4,25.8,9.1,25.8,15.5c0,1.5-0.5,2.9-1.4,4.2C333.6,158.8,284.7,164.4,242.8,164.4z"/>
	</g>
	<g>
		<path class="st14" d="M242.8,241.6c-26.2,0-50.8-2-69.4-5.7c-20.8-4.1-31-9.6-31-16.6s10.1-12.5,31-16.6
			c18.6-3.7,43.2-5.7,69.4-5.7c26.2,0,50.8,2,69.4,5.7c20.8,4.1,31,9.6,31,16.6s-10.1,12.5-31,16.6
			C293.6,239.5,269,241.6,242.8,241.6z M242.8,203.2c-25.8,0-50,2-68.1,5.6c-21.3,4.2-26,9-26,10.5s4.7,6.3,26,10.5
			c18.2,3.6,42.4,5.6,68.1,5.6s50-2,68.2-5.6c21.3-4.2,26-9,26-10.5s-4.7-6.3-26-10.5C292.8,205.1,268.6,203.2,242.8,203.2z"/>
	</g>
	<g>
		<path class="st14" d="M242.8,154c-29.9,0-57.1-3.6-69.1-9.1c-1.9-0.9-7.8-3.6-7.8-8.6V99c0-1.7,1.4-3.1,3.1-3.1
			c1.7,0,3.1,1.4,3.1,3.1v37.3l0,0c0,0,0.4,1.2,4.2,2.9c11.3,5.2,37.4,8.5,66.5,8.5c28.1,0,53.9-3.2,65.6-8.1
			c0.3-0.1,0.6-0.3,0.9-0.4c3.7-1.7,4.1-2.9,4.1-3l0-37.3c0-1.7,1.4-3.1,3.1-3.1s3.1,1.4,3.1,3.1v37.3c0,5-5.8,7.7-7.8,8.6
			c-0.4,0.2-0.7,0.3-1.1,0.5C298.2,150.7,272.1,154,242.8,154z"/>
	</g>
	<g>
		<path class="st14" d="M242.8,116.7c-19.9,0-38.7-1.5-52.8-4.3c-16.2-3.2-24.1-7.6-24.1-13.3c0-5.8,7.9-10.1,24.1-13.3
			c14.1-2.8,32.9-4.3,52.8-4.3s38.7,1.5,52.8,4.3c16.2,3.2,24.1,7.6,24.1,13.3c0,5.8-7.9,10.1-24.1,13.3
			C281.5,115.2,262.7,116.7,242.8,116.7z M242.8,87.6c-19,0-37,1.4-50.6,4c-15.8,3-19.9,6.5-20.1,7.5c0.2,0.9,4.3,4.4,20.1,7.4
			c13.6,2.6,31.6,4,50.6,4s37-1.4,50.6-4c15.7-3,19.8-6.4,20.1-7.5c-0.3-1-4.4-4.5-20.1-7.5C279.8,89,261.8,87.6,242.8,87.6z
			 M313.5,99.1L313.5,99.1L313.5,99.1z"/>
	</g>
	<g>
		<path class="st14" d="M242.8,106.7c-6.3,0-12.3-0.5-16.9-1.4c-4.3-0.8-9.2-2.3-9.2-6.3c0-3.9,4.9-5.4,9.2-6.3
			c4.5-0.9,10.5-1.4,16.9-1.4c6.3,0,12.3,0.5,16.9,1.4c4.3,0.8,9.2,2.3,9.2,6.3c0,3.9-4.9,5.4-9.2,6.3
			C255.1,106.2,249.2,106.7,242.8,106.7z M226.3,99c3.5,0.8,9,1.4,16.5,1.4c7.5,0,13-0.7,16.5-1.4c-3.5-0.8-9-1.4-16.5-1.4
			C235.4,97.6,229.8,98.3,226.3,99z M263.2,100.4L263.2,100.4L263.2,100.4z"/>
	</g>
	<g>
		<path class="st14" d="M332.8,147.9c-8.7,0-16.9-0.9-23.8-2.3c-1.7-0.3-2.8-2-2.4-3.7c0.3-1.7,2-2.8,3.7-2.4
			c20.2,4.1,49.1,2.9,68-9.1c8.5-5.4,13.2-13.4,13.1-21.9c-0.2-8.8-5.4-16.9-14.4-22.2c-33.8-19.9-78.8-0.7-109.7,15.4
			c-1.5,0.8-3.4,0.2-4.2-1.3c-0.8-1.5-0.2-3.4,1.3-4.2c32.2-16.8,79.2-36.8,115.7-15.3c10.9,6.4,17.2,16.4,17.4,27.4
			c0.2,10.7-5.6,20.6-15.9,27.2C367.4,144.7,349.2,147.9,332.8,147.9z"/>
	</g>
	<g>
		<path class="st14" d="M195.5,406.9c-1.7,0-3.1-1.4-3.1-3.1V172.9c0-1.7,1.4-3.1,3.1-3.1c1.7,0,3.1,1.4,3.1,3.1v230.9
			C198.6,405.5,197.2,406.9,195.5,406.9z"/>
	</g>
</g>
</svg>
