<?xml version="1.0" encoding="utf-8"?>
<!-- Generator: Adobe Illustrator 21.1.0, SVG Export Plug-In . SVG Version: 6.00 Build 0)  -->
<svg version="1.1" id="Layer_1" xmlns="http://www.w3.org/2000/svg" xmlns:xlink="http://www.w3.org/1999/xlink" x="0px" y="0px"
	 width="500px" height="500px" viewBox="0 0 500 500" style="enable-background:new 0 0 500 500;" xml:space="preserve">
<style type="text/css">
	.st0{fill:#FFFFFF;stroke:#FFFFFF;stroke-width:5;stroke-linecap:round;stroke-linejoin:round;stroke-miterlimit:10;}
	.st1{fill:none;stroke:#FFFFFF;stroke-width:8;stroke-linecap:round;stroke-linejoin:round;stroke-miterlimit:10;}
	.st2{fill:#FFFFFF;stroke:#FFFFFF;stroke-width:8;stroke-miterlimit:10;}
	.st3{fill:none;stroke:#FFFFFF;stroke-width:8;stroke-miterlimit:10;}
	.st4{fill:none;stroke:#FFFFFF;stroke-width:8;stroke-linejoin:round;stroke-miterlimit:10;}
	.st5{fill:#FFFFFF;}
	.st6{fill:none;stroke:#FFFFFF;stroke-width:6.9725;stroke-linecap:round;stroke-linejoin:round;stroke-miterlimit:10;}
	.st7{fill:none;stroke:#FFFFFF;stroke-width:8.1672;stroke-linecap:round;stroke-linejoin:round;stroke-miterlimit:10;}
	.st8{fill:#FFFFFF;stroke:#FFFFFF;stroke-width:8;stroke-linecap:round;stroke-linejoin:round;stroke-miterlimit:10;}
	.st9{fill:none;stroke:#FFFFFF;stroke-width:6.4444;stroke-linecap:round;stroke-linejoin:round;stroke-miterlimit:10;}
	.st10{fill:#FF0000;stroke:#FFFFFF;stroke-width:8;stroke-linecap:round;stroke-linejoin:round;stroke-miterlimit:10;}
	.st11{fill:#EBCA52;}
	.st12{fill:none;stroke:#000000;stroke-width:8;stroke-linecap:round;stroke-linejoin:round;stroke-miterlimit:10;}
	.st13{fill:none;}
	.st14{fill:#3D3B30;}
	.st15{fill:#363946;stroke:#FFFFFF;stroke-width:5;stroke-miterlimit:10;}
	.st16{fill:none;stroke:#FFFFFF;stroke-width:5;stroke-linecap:round;stroke-linejoin:round;stroke-miterlimit:10;}
</style>
<g>
	<g>
		<g>
			<path class="st14" d="M144.7,82.1V51c0-8.4,6.9-15.3,15.3-15.3h21.1c8.4,0,15.3,6.9,15.3,15.3v28.8h-43.2c-1.8,0-3.6,0.3-5.2,1
				L144.7,82.1z M160,40.5c-5.8,0-10.5,4.7-10.5,10.5v24.3c1.2-0.2,2.4-0.4,3.7-0.4h38.4V51c0-5.8-4.7-10.5-10.5-10.5H160z"/>
		</g>
		<g>
			<path class="st14" d="M355.3,82.1l-3.3-1.3c-1.7-0.6-3.4-1-5.2-1h-43.2V51c0-8.4,6.9-15.3,15.3-15.3H340
				c8.4,0,15.3,6.9,15.3,15.3V82.1z M308.4,75h38.4c1.2,0,2.5,0.1,3.7,0.4V51c0-5.8-4.7-10.5-10.5-10.5h-21.1
				c-5.8,0-10.5,4.7-10.5,10.5V75z"/>
		</g>
	</g>
	<g>
		<g>
			<path class="st14" d="M146.8,368.6h-33.7V302c0-8,6.5-14.5,14.5-14.5h19.3V368.6z M117.9,363.7h24v-71.4h-14.4
				c-5.3,0-9.6,4.3-9.6,9.6V363.7z"/>
		</g>
		<g>
			<path class="st14" d="M386.9,368.6h-33.7v-81.1h19.3c8,0,14.5,6.5,14.5,14.5V368.6z M358.1,363.7h24V302c0-5.3-4.3-9.6-9.6-9.6
				h-14.4V363.7z"/>
		</g>
	</g>
	<g>
		<path class="st14" d="M333,464.3H167c-11.7,0-21.7-7.9-24.4-19.3l-0.7-3h216.2l-0.7,3C354.7,456.4,344.7,464.3,333,464.3z
			 M148.3,446.9c3,7.6,10.4,12.6,18.7,12.6h166c8.4,0,15.7-5.1,18.7-12.6H148.3z"/>
	</g>
	<g>
		<path class="st14" d="M203.1,368.6h-61.2V213.1l3.7,2.3c2.3,1.4,4.9,2.1,7.5,2.1h12v107.6h17.1V217.5h20.9V368.6z M146.8,363.7
			h51.5V222.4h-11.2V330h-26.8V222.4h-7.1c-2.2,0-4.3-0.4-6.4-1.1V363.7z"/>
	</g>
	<g>
		<path class="st14" d="M358.1,368.6h-61.2v-151h20.9v107.6h17.1V217.5h12c2.7,0,5.3-0.7,7.5-2.1l3.7-2.3V368.6z M301.7,363.7h51.5
			V221.3c-2,0.7-4.2,1.1-6.4,1.1h-7.1V330h-26.8V222.4h-11.2V363.7z"/>
	</g>
	<g>
		<path class="st14" d="M301.7,368.6H198.3v-151h103.5V368.6z M203.1,363.7h93.8V222.4h-93.8V363.7z"/>
	</g>
	<g>
		<path class="st14" d="M301.7,368.6H198.3v-151h103.5V368.6z M203.1,363.7h93.8V222.4h-93.8V363.7z"/>
	</g>
	<g>
		
			<rect x="259.4" y="204.4" transform="matrix(0.7071 -0.7071 0.7071 0.7071 -105.3083 260.5579)" class="st14" width="4.8" height="105.9"/>
	</g>
	<g>
		
			<rect x="185.2" y="255" transform="matrix(0.7071 -0.7071 0.7071 0.7071 -112.2599 243.7753)" class="st14" width="105.9" height="4.8"/>
	</g>
	<g>
		
			<rect x="241.5" y="261.7" transform="matrix(0.7071 -0.7071 0.7071 0.7071 -156.871 267.0568)" class="st14" width="4.8" height="122.3"/>
	</g>
	<g>
		
			<rect x="194.9" y="320.5" transform="matrix(0.7071 -0.7071 0.7071 0.7071 -153.3156 275.6403)" class="st14" width="122.3" height="4.8"/>
	</g>
	<g>
		<path class="st14" d="M346.8,222.4h-12v-37.5h-17.1v37.5H182.2v-37.5h-17.1v37.5h-12c-3.6,0-7.1-1-10.1-2.9
			c-5.8-3.5-9.2-9.7-9.2-16.4V94.2c0-7.9,4.9-15.1,12.3-18c2.2-0.9,4.6-1.3,7-1.3h193.6c2.4,0,4.7,0.4,7,1.3
			c7.4,2.8,12.3,10.1,12.3,18v108.8c0,6.8-3.4,12.9-9.2,16.4C353.9,221.4,350.4,222.4,346.8,222.4z M339.7,217.5h7.1
			c2.7,0,5.3-0.7,7.5-2.1c4.3-2.6,6.9-7.2,6.9-12.3V94.2c0-5.9-3.7-11.3-9.2-13.4c-1.7-0.7-3.4-1-5.2-1H153.2c-1.8,0-3.6,0.3-5.2,1
			c-5.5,2.1-9.2,7.5-9.2,13.4v108.8c0,5.1,2.6,9.6,6.9,12.3c2.3,1.4,4.9,2.1,7.5,2.1h7.1v-37.5h26.8v37.5h125.8v-37.5h26.8V217.5z"
			/>
	</g>
	<g>
		<path class="st14" d="M346.8,222.4h-12v-37.5h-17.1v37.5H182.2v-37.5h-17.1v37.5h-12c-3.6,0-7.1-1-10.1-2.9
			c-5.8-3.5-9.2-9.7-9.2-16.4V94.2c0-7.9,4.9-15.1,12.3-18c2.2-0.9,4.6-1.3,7-1.3h193.6c2.4,0,4.7,0.4,7,1.3
			c7.4,2.8,12.3,10.1,12.3,18v108.8c0,6.8-3.4,12.9-9.2,16.4C353.9,221.4,350.4,222.4,346.8,222.4z M339.7,217.5h7.1
			c2.7,0,5.3-0.7,7.5-2.1c4.3-2.6,6.9-7.2,6.9-12.3V94.2c0-5.9-3.7-11.3-9.2-13.4c-1.7-0.7-3.4-1-5.2-1H153.2c-1.8,0-3.6,0.3-5.2,1
			c-5.5,2.1-9.2,7.5-9.2,13.4v108.8c0,5.1,2.6,9.6,6.9,12.3c2.3,1.4,4.9,2.1,7.5,2.1h7.1v-37.5h26.8v37.5h125.8v-37.5h26.8V217.5z"
			/>
	</g>
	<g>
		<g>
			<path class="st14" d="M187.1,309.8h-26.8V180.1h26.8V309.8z M165.2,304.9h17.1v-120h-17.1V304.9z"/>
		</g>
		<g>
			<path class="st14" d="M187.1,330h-26.8v-25.1h26.8V330z M165.2,325.2h17.1v-15.4h-17.1V325.2z"/>
		</g>
		<g>
			<path class="st14" d="M339.7,330h-26.8v-25.1h26.8V330z M317.8,325.2h17.1v-15.4h-17.1V325.2z"/>
		</g>
		<g>
			<path class="st14" d="M339.7,309.8h-26.8V180.1h26.8V309.8z M317.8,304.9h17.1v-120h-17.1V304.9z"/>
		</g>
	</g>
	<g>
		<path class="st14" d="M187.1,446.9H80.8v-83.1h106.3V446.9z M85.7,442h96.6v-73.4H85.7V442z"/>
	</g>
	<g>
		<path class="st14" d="M419.2,446.9H312.9v-83.1h106.3V446.9z M317.8,442h96.6v-73.4h-96.6V442z"/>
	</g>
	<g>
		<path class="st14" d="M317.8,446.9H182.2v-83.1h135.5V446.9z M187.1,442h125.8v-73.4H187.1V442z"/>
	</g>
	<g>
		<path class="st14" d="M317.8,446.9H182.2v-83.1h135.5V446.9z M187.1,442h125.8v-73.4H187.1V442z"/>
	</g>
	<g>
		<g>
			<rect x="182.2" y="444.4" class="st14" width="4.8" height="7.6"/>
		</g>
		<g>
			<rect x="182.2" y="355.2" class="st14" width="4.8" height="11"/>
		</g>
		<g>
			<rect x="312.9" y="444.4" class="st14" width="4.8" height="7.6"/>
		</g>
		<g>
			<rect x="312.9" y="355.2" class="st14" width="4.8" height="11"/>
		</g>
	</g>
</g>
</svg>
