<?xml version="1.0" standalone="no"?>
<!DOCTYPE svg PUBLIC "-//W3C//DTD SVG 20010904//EN"
 "http://www.w3.org/TR/2001/REC-SVG-20010904/DTD/svg10.dtd">
<svg version="1.0" xmlns="http://www.w3.org/2000/svg"
 width="300.000000pt" height="300.000000pt" viewBox="0 0 300.000000 300.000000"
 preserveAspectRatio="xMidYMid meet">
<metadata>
Created by potrace 1.11, written by Peter Selinger 2001-2013
</metadata>
<g transform="translate(0.000000,300.000000) scale(0.100000,-0.100000)"
fill="#000000" stroke="none">
<path d="M1258 2830 c-142 -26 -274 -149 -358 -333 -58 -129 -121 -357 -136
-492 -2 -22 -6 -49 -9 -60 -2 -11 -7 -56 -10 -100 -3 -44 -8 -105 -11 -135 -5
-63 -5 -540 0 -585 2 -16 7 -61 10 -100 30 -293 105 -526 214 -665 141 -181
314 -239 475 -161 103 49 145 98 124 141 -18 36 -60 38 -100 4 -139 -118 -293
-81 -423 102 -24 34 -55 87 -69 118 -26 58 -81 254 -89 316 -3 19 -9 69 -15
110 -6 41 -13 111 -16 155 -7 91 -8 464 -1 540 2 28 7 91 11 140 4 50 10 110
15 135 4 25 8 52 8 60 3 63 65 292 107 391 82 196 193 303 327 314 98 8 174
-49 230 -172 37 -81 36 -100 -2 -108 -79 -17 -190 -108 -233 -190 -28 -53 -32
-167 -10 -225 44 -112 157 -167 277 -137 56 15 118 80 136 142 14 49 19 195
10 285 l-5 44 51 1 c68 1 302 -30 419 -55 55 -12 87 8 83 53 -4 41 -24 50
-168 76 -149 26 -215 33 -324 35 l-89 2 -22 66 c-74 219 -220 322 -407 288z
m349 -517 c9 -66 10 -197 1 -233 -36 -139 -218 -97 -218 52 0 75 79 171 166
202 45 16 45 16 51 -21z"/>
</g>
</svg>
