<?xml version="1.0" encoding="utf-8"?>
<!-- Generator: Adobe Illustrator 21.1.0, SVG Export Plug-In . SVG Version: 6.00 Build 0)  -->
<svg version="1.1" id="Layer_1" xmlns="http://www.w3.org/2000/svg" xmlns:xlink="http://www.w3.org/1999/xlink" x="0px" y="0px"
	 width="754px" height="402px" viewBox="0 0 754 402" style="enable-background:new 0 0 754 402;" xml:space="preserve">
<style type="text/css">
	.st0{fill:#FFF37F;}
	.st1{fill:#FFFFFF;}
</style>
<g>
	<g>
		<path class="st1" d="M213.6,325.6c-5,0-9.7-2.1-13.8-6.1c-9.7-9.5-16.2-31.1-20.7-57c-2.4,6.1-5.5,11.4-9.6,15.3
			c-5.5,5.2-12.3,7.5-19.9,6.7c-7-0.8-12.8-4.1-17.3-9.8c-1.4-1.8-2.6-3.7-3.7-5.8c-1.8,5.2-4.2,9.4-7.3,12
			c-3.3,2.8-7.3,3.7-11.5,2.8c-11.7-2.7-18.2-16.6-16.6-35.4c1.1-13.3,6.6-29.1,18.4-29.7c4.5-0.3,7.8,1,10.1,2.6
			c0.2-3.5,0.5-5.7,0.5-6.1c0.4-3.1,3-5.4,6.3-5.3c3.2,0.1,5.7,2.7,5.8,5.9c0.1,3.6,0.3,12.9-0.4,23.5c0.7,10.5,2.8,21.7,8,28.2
			c2.5,3.2,5.5,4.9,9.2,5.3c4.1,0.5,7.3-0.6,10.2-3.4c8.2-7.8,12-27.5,12.8-47.4c-4.6-50.3-4.1-102.1-3.9-112c0.1-3.3,2.7-5.9,6-5.9
			l0,0c3.3,0,5.9,2.6,6,5.9c0,0.7,2,67.6,3.6,91.3c0.2,3.1,0.6,10.2,0.4,19.1c3.7,41.2,10.4,79.2,22.2,90.8c2.5,2.5,4.4,2.7,5.6,2.7
			c3.2-0.1,6.1-1.9,9.1-5.5c5.9-7.3,10.5-20.2,13.9-36c-4.6-17.8-10.6-46.9-16.5-92.2c-6.1-47.2-1.5-72.3,13.8-74.7
			c10.6-1.6,20,10,22.1,22c1.7,9.9,3.1,47.7,0.4,87.7c0.9-1,1.8-1.9,2.8-2.6c4.3-3.2,9.4-3.8,14.7-1.9c17.3,6.3,18.3,34.3,19.3,61.3
			c0.4,12.1,1.4,37.3,6,37.3l0,0c2.4-0.1,4.7-2.6,6.2-4.8c6.9-9.7,11.4-29.4,13.1-48.7c-0.1,0-0.3,0-0.4,0c-7,0-16.4-3.1-23-17.2
			c-7.2-15.5-7.4-30.1-0.4-39.2c4.1-5.3,10.2-7.9,16.3-6.8c7.6,1.3,13.7,7.8,16.8,17.8c2.3,7.1,3.4,17.1,3.4,28.2
			c9.7-6.8,18.5-18.4,20.3-22.9c1.3-3.5,2.5-7.5,3.3-11.5c-1.2-0.5-2.4-1.1-3.5-1.9c-7.6-5-13.8-15.7-11-23.7
			c1.7-4.9,6.2-7.6,12-7.1c5.3,0.4,9.6,2.9,12.4,7.3c2,3.2,3,7.2,3.3,11.4c7.2-6.1,14.1-8.2,20.3-6.2c7.6,2.4,11.3,9.9,12.2,14
			c0.5,2.3,0,4.9-1.9,12.6c-7,29.1-4.7,34.7-2.7,35.4c0.8,0.3,2-0.3,2.8-0.9c6.2-4.1,13.8-17.7,18.5-33.4c1.4-12,3.9-22.6,4.8-26.4
			c0.8-3,3.7-4.9,6.7-4.5c3.1,0.5,5.3,3.2,5.1,6.3c-0.4,8-2,17.2-4.6,26.2c-1.5,13.9-1.3,27.3,2.9,32.3c1.1,1.3,2.4,1.8,4.4,1.7
			c2.3-0.1,4.3-1.2,6-3.3c5.6-6.7,7.7-20.8,8.2-34c-0.4-7.4-0.6-15.9-0.7-25.7c0-3.2,2.5-5.9,5.7-6.1c3.3-0.2,6,2.2,6.4,5.4
			c0.1,0.8,0.3,2.8,0.5,5.4c1.6-7.7,3.9-14,7.1-17.2c2.8-2.9,5.9-3.5,7.8-3.4c16.7,0.3,17.6,14.4,19,35.7c0.5,7.5,1,16,2.2,26.2
			c3.1,27.5,10.9,39.7,17.2,41.9c3.1,1.1,6.6-0.1,9.8-2.2c-2.6-14.2-1.8-30.1,0.7-42c4-19.9,12-30.5,21.8-29.3
			c6.8,0.9,11.9,5.2,14.4,12.3c5.6,16.3-4.2,44.2-21.9,62.1c-0.5,0.5-1,1-1.5,1.4c2.7,8.9,7.3,15.9,14.4,17.9
			c28.6,8,41-17.1,41.5-18.1c1.4-3,5-4.3,8-2.9s4.3,5,2.9,8c-5.8,12.3-24.9,33.3-55.7,24.6c-10.6-3-17.4-11.4-21.4-22.1
			c-7.1,3.5-12.9,3-17,1.6c-13-4.5-22-22.9-25.2-51.9c-1.2-10.5-1.8-19.5-2.2-26.8c-1.4-21.2-2.3-24.1-6.4-24.4
			c-5,5.3-8.1,39.6-6.9,76c0.1,2-0.9,4-2.6,5.1c-1.7,1.2-3.8,1.4-5.7,0.7c-1.9-0.8-5.2-2.1-8-14.9c-0.9,1.6-1.9,3-3,4.3
			c-3.9,4.6-8.9,7.2-14.5,7.5c-5.8,0.3-10.8-1.7-14.4-6.1c-2.6-3.1-4.3-7.3-5.3-12.2c-3.7,6.2-7.9,11.2-12.3,14.1
			c-5.8,3.8-10.7,3.2-13.7,2.1c-15.3-5.7-9-32.1-4.8-49.5c0.7-2.8,1.5-6.1,1.7-7.5c-0.5-1.4-1.9-4-3.9-4.6
			c-2.2-0.7-5.9,1.1-10.1,4.9c-2.4,2.2-5,3.7-7.7,4.5c-1.5,8.1-3.9,14.5-4.1,15.1c-2.7,7.2-16.4,25.5-32,32.8
			c-1.5,22.7-6.9,46.7-15.5,58.8c-4.5,6.4-9.8,9.7-15.7,9.9c-0.2,0-0.4,0-0.5,0c-16.1,0-17-22.7-17.9-48.9
			c-0.7-19.8-1.7-46.9-11.4-50.4c-1.9-0.7-2.7-0.2-3.4,0.3c-9.2,6.7-11.6,46.1-10.4,71.9c0.1,2.9-1.8,5.4-4.6,6.1s-5.7-0.7-6.9-3.3
			c-0.1-0.2-0.5-1.1-1.2-2.8c-3.1,9-6.7,16.5-11.1,21.8c-5.2,6.4-11.3,9.8-18.1,10C214,325.6,213.8,325.6,213.6,325.6z M112.7,230.5
			c-0.1,0-0.3,0-0.5,0c-1.6,0.1-6.1,6.8-7.1,18.7c-1,11.8,2.1,21.5,7.2,22.6c0.4,0.1,0.7,0.1,1.2-0.3c3.2-2.6,5.5-11.3,7-22.2
			c-2.6-1-4.3-3.7-3.8-6.6c0.5-3.3,0.4-9.3-1.5-11.4C115,231,114.4,230.5,112.7,230.5z M546.8,210.1c-2.9,0.8-10.4,15.9-10.5,40.1
			c0,2.9,0.1,6,0.3,9c12.7-15.5,18-35.2,14.7-44.8C550.1,210.9,548.3,210.3,546.8,210.1z M308.4,203.8c-1.9,0-3.2,1.4-3.9,2.3
			c-3.1,4-4.5,13.5,1.7,26.8c4.9,10.5,10.6,10.4,12.5,10.3c0.2,0,0.4,0,0.6,0c0.3-11.9-0.6-22.7-2.9-29.7c-2-6.4-5.2-9.1-7.4-9.5
			C308.8,203.9,308.6,203.8,308.4,203.8z M236,117c-0.1,0-0.1,0-0.2,0c-0.1,0-10.9,5.2-3.6,61.2c3.3,25.3,6.6,45.4,9.7,61.2
			c5.3-45.9,4.4-98,2.3-110.3C242.9,121.8,237.9,117,236,117z M351.9,183c0.4,1.8,1.8,4.7,4.2,7c-0.2-2.2-0.7-4.1-1.5-5.4
			C354.1,183.8,353.4,183.2,351.9,183z"/>
	</g>
	<g>
		<path class="st1" d="M257.2,138.1h-12.1c0.6,8.7,0.9,21.7,0.7,36.8L258,177C258.1,161.3,257.8,147.5,257.2,138.1z"/>
	</g>
	<g>
		<path class="st1" d="M613.8,351.4c-7.7,0-16.1-2.5-25-7.6c-23.9-13.6-33.5-40.7-25.7-72.5c8.2-33.5,37.1-69.8,74.6-71.1
			c5.1-0.2,10.1,0.1,14.8,0.9c0-10.4,0.4-20.7,1.2-30.9c-1.8,0.4-3.6,0.8-5.4,1.1c-24.4,3.8-37.6-5.3-44.2-13.7
			c-0.1-0.1-0.2-0.2-0.2-0.3c-19,5.6-34.1,1.9-41.6-10.2c-5-8.1-6.2-17.2-3.4-25c2.7-7.4,8.9-13,17.3-15.8c3.2-1,6.6,0.7,7.6,3.9
			c1,3.2-0.7,6.6-3.9,7.6c-4.9,1.6-8.2,4.5-9.7,8.4c-1.6,4.3-0.7,9.6,2.3,14.5c5.3,8.6,17.1,7.7,25.3,5.7c-4.7-12.6-3.6-27,0.4-37
			c4.1-10.3,11.2-16.9,19.5-18.1c11-1.6,19.7,4.5,22.1,15.4c2.9,13.3-4.2,34.5-24.2,45.7c6.9,6.7,17.5,9.1,30.8,7
			c2.9-0.5,5.7-1.1,8.6-2c7.8-66.7,32.3-122.2,55-132.8c7.9-3.7,15.8-2.5,22.3,3.2c10.7,9.5,12.9,27.2,6.3,50
			c-10.2,34.9-38.6,73.6-72.3,88.3c-1.2,12.3-1.8,25.1-1.6,38.1c10,3.6,19,9.5,26.5,17.6c21.4,23.1,26.2,57.3,24.2,74.7
			c-0.4,3.3-3.4,5.6-6.7,5.3c-3.3-0.4-5.7-3.4-5.3-6.7c1.7-14.5-2.5-45.1-21-65.1c-5.1-5.6-10.9-9.8-17.4-12.8
			c0.5,43.8-3.9,111.4-34.2,129.6C625.4,349.9,619.8,351.4,613.8,351.4z M640.7,212.2c-0.9,0-1.7,0-2.6,0
			c-31.5,1.1-56.1,32.7-63.3,61.9c-6.4,26.2,1,48.3,19.9,59.1c12,6.8,21.7,7.9,29.7,3.1c19.1-11.4,29.6-57.3,28.3-123.1
			C648.8,212.6,644.8,212.2,640.7,212.2z M719,34.4c-1.2,0-2.5,0.3-3.9,1c-16.8,7.9-38.9,55.5-47.2,116.3
			c27.3-15.1,50.6-48.3,59.1-77.4c5.1-17.5,4.1-31.6-2.7-37.6C722.5,35.2,720.8,34.4,719,34.4z M621.2,103.1c-0.6,0-1.3,0.1-1.8,0.1
			c-3.8,0.5-7.6,4.5-10,10.6c-3.1,7.9-3.8,19-0.3,28.3c15.1-8.2,21-23.6,19-32.9C626.9,104.2,624,103.1,621.2,103.1z"/>
	</g>
	<g>
		<path class="st1" d="M436.4,148.4c-1.1-1.5-2.9-2.5-5-2.6c1.8,0.1,0.1-0.1-0.5-0.3c-1.1-0.3-2.9-0.5-4-0.1c-2.9,1-4.6,3.1-5.3,6.1
			c-1.1,4.5,2.9,8.6,7.4,7.4c-0.6,0.2,1,0,1.1,0c0.9,0.1,1.8,0.2,2.7,0.3c3.3,0.1,6-2.8,6-6C438.8,151.1,437.8,149.4,436.4,148.4z"
			/>
	</g>
	<g>
		<g>
			<path class="st1" d="M78,157.5c-1.2,0-2.3-0.3-3.4-1.1c-2.6-1.9-3.3-5.5-1.4-8.2c12.9-18.3,34.6-27.6,98.3-13.5
				c62.5,13.9,86.1,12.9,137.5,6.6c45.2-5.6,69.7-29.5,69.7-49.2c0-15.5-11.7-17.6-12.2-17.6c-3.2-0.5-5.4-3.5-4.9-6.7
				s3.5-5.4,6.7-4.9c7.6,1.2,22.1,8.9,22.1,29.2c0,25.3-27.5,54.3-80,60.8c-51.8,6.4-77.4,7.4-141.4-6.8c-63.8-14.1-78-2.8-86.2,8.9
				C81.7,156.6,79.8,157.5,78,157.5z"/>
		</g>
		<g>
			<path class="st1" d="M69.4,379.6c-3,0-5.7-0.4-8-1c-19.8-4.8-35.1-25.9-41.5-44.7C8,299,7.2,261.7,7.9,233.1
				c0.8-36.7,3.6-67.3,14.6-97.4c10.4-28.5,25.8-44.2,45.8-46.8c13.9-1.8,25.5,3.6,33.7,15.6c5.6,8.1,9.6,19.1,12.3,33.6
				c3.9,20.7,4.8,46.7-12.8,52.6c-11.1,3.7-21.6,0.7-28.1-8c-7.3-9.8-7.3-24.2-0.2-34.3c1.9-2.6,5.5-3.3,8.2-1.4
				c2.6,1.9,3.3,5.5,1.4,8.2c-4.2,6-4.2,14.8,0,20.6c2.4,3.2,6.9,6.5,14.9,3.9c7.3-2.4,9.1-17.1,5-39.3c-8-42.8-26.8-40.4-33-39.6
				c-15.4,2-27.6,15.2-36.3,39.2c-10.4,28.6-13.1,58.2-13.9,93.7c-1.2,52.7,5.5,79.4,11.4,96.8c5.2,15.3,17.8,33.4,33.1,37.1
				c8.4,2,16.8-0.8,24.7-8.5c2.3-2.2,6-2.2,8.3,0.1c2.3,2.3,2.2,6-0.1,8.3C87,376.8,77.3,379.6,69.4,379.6z"/>
		</g>
	</g>
	<path class="st1" d="M258,177l-12.2-2.2c0.2-15.1-0.1-28-0.7-36.8h12.1C257.8,147.5,258.1,161.3,258,177z"/>
</g>
</svg>
